<svg width="16" height="32" viewBox="0 0 16 32" fill="none" xmlns="http://www.w3.org/2000/svg">
<g clip-path="url(#clip0_2914_152064)">
<rect width="16" height="32" fill="#202124"/>
<path d="M4.24371 31.9224C3.04193 31.7312 1.94213 31.1107 1.18721 30.1981C0.491539 29.357 0.122208 28.4385 0.0384936 27.3411C-0.0138078 26.6555 -0.0138078 5.34447 0.0384936 4.65889C0.122256 3.5609 0.491454 2.64311 1.18828 1.80063C1.95927 0.868488 3.05142 0.260538 4.29042 0.0738153C4.61095 0.0255089 5.97351 0.0194532 14.1924 0.0298065C23.0587 0.0409752 23.7415 0.0464022 23.9904 0.107684C26.0648 0.618259 27.4623 2.0363 27.8971 4.0717C27.9633 4.38162 27.9665 4.93387 27.9665 16C27.9665 27.0662 27.9633 27.6184 27.8971 27.9283C27.4628 29.9616 26.0626 31.3823 23.9904 31.8923C23.7412 31.9537 23.0646 31.9588 14.1457 31.9662C6.25267 31.9728 4.51154 31.9651 4.24371 31.9224ZM23.761 29.926C24.852 29.6192 25.6407 28.8217 25.9316 27.7312L26.0167 27.4122V16V4.58782L25.9316 4.26879C25.6375 3.16629 24.836 2.36286 23.7419 2.07389L23.4169 1.98806H14.031C6.35415 1.98806 4.59989 1.99735 4.39664 2.03909C3.21962 2.28078 2.29199 3.20865 2.0484 4.3879C1.99419 4.65037 1.98803 5.83481 1.98803 16C1.98803 26.1652 1.99419 27.3497 2.0484 27.6121C2.17605 28.2301 2.47467 28.7639 2.9343 29.1958C3.43665 29.6678 3.98624 29.917 4.72161 30.0063C4.78469 30.014 9.02555 30.0184 14.1457 30.0161L23.4552 30.012L23.761 29.926Z" fill="#386AFF"/>
</g>
<defs>
<clipPath id="clip0_2914_152064">
<rect width="16" height="32" fill="white"/>
</clipPath>
</defs>
</svg>
