<svg width="12" height="32" viewBox="0 0 12 32" fill="none" xmlns="http://www.w3.org/2000/svg">
<g clip-path="url(#clip0_2914_152067)">
<rect width="12" height="32" fill="#202124"/>
<path d="M-11.5077 31.9568C-12.2063 31.8567 -12.6981 31.7131 -13.1986 31.463C-13.7166 31.204 -14.0924 30.9325 -14.5136 30.5125C-15.2257 29.8026 -15.6655 28.9876 -15.8921 27.9577C-15.9585 27.6559 -15.9617 27.1154 -15.9617 16C-15.9617 4.88457 -15.9586 4.34415 -15.8921 4.04233C-15.6624 2.99829 -15.2241 2.19196 -14.495 1.47167C-13.7735 0.758937 -13.0633 0.372921 -11.9856 0.107678C-11.7366 0.0464042 -11.0535 0.0409748 -2.1876 0.0298065C6.03135 0.0194532 7.3939 0.0255089 7.71444 0.0738153C9.7119 0.374844 11.2944 1.78934 11.8235 3.74673L11.9475 4.20551V16V27.7945L11.8255 28.2452C11.5506 29.2608 10.9676 30.1767 10.1833 30.825C9.43477 31.4438 8.5552 31.8252 7.60922 31.9412C7.30963 31.9779 -11.2543 31.9931 -11.5077 31.9568ZM7.77453 29.9265C8.28472 29.7813 8.72726 29.5232 9.10303 29.1517C9.48814 28.7711 9.7053 28.4255 9.87712 27.9199L9.9977 27.5651V16V4.4349L9.87712 4.0801C9.70582 3.57607 9.48814 3.22932 9.10161 2.84476C8.82645 2.57101 8.70689 2.48396 8.38413 2.32238C7.65023 1.95498 8.68241 1.98806 -2.04531 1.98806H-11.4886L-11.8312 2.09539C-12.8843 2.42523 -13.5747 3.11564 -13.9045 4.1687L-14.0119 4.51136V16V27.4887L-13.9045 27.8313C-13.5301 29.0266 -12.6221 29.8127 -11.4121 29.989C-11.2853 30.0075 -7.00936 30.0201 -1.85415 30.0172L7.47441 30.012L7.77453 29.9265Z" fill="#386AFF"/>
</g>
<defs>
<clipPath id="clip0_2914_152067">
<rect width="12" height="32" fill="white"/>
</clipPath>
</defs>
</svg>
