<svg width="24" height="24" viewBox="0 0 24 24" fill="none" xmlns="http://www.w3.org/2000/svg">
<g clip-path="url(#clip0_2914_152080)">
<path d="M11.2974 23.9691C11.2422 23.9629 11.0357 23.9435 10.8386 23.9259C7.9012 23.6647 5.02719 22.2027 3.04321 19.9606C1.30918 18.0009 0.298379 15.6508 0.057063 13.018C0.0164608 12.575 0.0164608 11.4251 0.057063 10.9821C0.296145 8.37366 1.30103 6.02137 3.00302 4.08607C4.99885 1.81666 7.76051 0.393994 10.7956 0.0717182C11.6309 -0.0169767 12.7717 0.00709075 13.6754 0.132471C18.0403 0.73809 21.7623 3.75728 23.2685 7.91403C23.8018 9.3859 24.0293 10.8942 23.9659 12.5377C23.8182 16.3662 21.7784 19.9348 18.5312 22.0455C16.9453 23.0763 15.2254 23.6918 13.3046 23.9158C12.9429 23.958 11.5317 23.9955 11.2974 23.9691ZM15.7705 16.2008V15.5843H14.6092H13.4479V10.9391V6.29396L12.6952 6.29395L11.9425 6.29394L10.7024 6.54191L9.46226 6.78989V7.44515C9.46226 8.01781 9.46786 8.10041 9.50669 8.10041C9.54585 8.10041 11.784 7.66243 11.9497 7.62235L12.0142 7.60674V11.5955V15.5843H10.8386H9.66298V16.2008V16.8173H12.7167H15.7705V16.2008Z" fill="#386AFF"/>
</g>
<defs>
<clipPath id="clip0_2914_152080">
<rect width="24" height="24" fill="white"/>
</clipPath>
</defs>
</svg>
