<svg width="24" height="24" viewBox="0 0 24 24" fill="none" xmlns="http://www.w3.org/2000/svg">
<g clip-path="url(#clip0_2914_152093)">
<path d="M11.2974 23.9691C11.2422 23.9629 11.0357 23.9435 10.8386 23.9259C7.9012 23.6647 5.02719 22.2027 3.04321 19.9606C1.30918 18.0009 0.298379 15.6508 0.057063 13.018C0.0164608 12.575 0.0164608 11.4251 0.057063 10.9821C0.296145 8.37366 1.30103 6.02137 3.00302 4.08607C4.99885 1.81666 7.76051 0.393994 10.7956 0.0717182C11.6309 -0.0169767 12.7717 0.00709075 13.6754 0.132471C18.0403 0.73809 21.7623 3.75728 23.2685 7.91403C23.8018 9.3859 24.0293 10.8942 23.9659 12.5377C23.8182 16.3662 21.7784 19.9348 18.5312 22.0455C16.9453 23.0763 15.2254 23.6918 13.3046 23.9158C12.9429 23.958 11.5317 23.9955 11.2974 23.9691ZM15.6271 16.2009V15.5846L13.1774 15.5773L10.7277 15.57L11.7915 14.4804C14.5326 11.6727 14.6871 11.5019 15.091 10.8297C15.4834 10.1766 15.6509 9.45077 15.5718 8.74563C15.4949 8.05993 15.2535 7.5446 14.7992 7.09606C14.1777 6.48255 13.364 6.16462 12.2651 6.10593C11.461 6.06298 10.5295 6.23776 9.41208 6.64128L9.00348 6.78883V7.51631C9.00348 7.91642 9.01067 8.24378 9.01945 8.24378C9.02823 8.24378 9.25726 8.13518 9.52841 8.00246C10.5126 7.5207 11.2196 7.32805 12.0083 7.32678C12.718 7.32564 13.1918 7.50309 13.6143 7.92832C14.0239 8.3406 14.1967 8.8995 14.097 9.48962C13.9726 10.226 13.5927 10.8077 12.4544 12.0049C12.2044 12.2678 11.3128 13.1822 10.473 14.037L8.94613 15.5911V16.2042V16.8173H12.2866H15.6271V16.2009Z" fill="#386AFF"/>
</g>
<defs>
<clipPath id="clip0_2914_152093">
<rect width="24" height="24" fill="white"/>
</clipPath>
</defs>
</svg>
