<svg width="24" height="24" viewBox="0 0 24 24" fill="none" xmlns="http://www.w3.org/2000/svg">
<g clip-path="url(#clip0_2914_152087)">
<path fill-rule="evenodd" clip-rule="evenodd" d="M24 12C24 18.6289 18.6289 24 12 24C5.37109 24 0 18.6289 0 12C0 5.37109 5.37109 0 12 0C18.6289 0 24 5.37109 24 12Z" fill="white" fill-opacity="0.14"/>
<path d="M10.6719 15.5969H15.625V16.8H8.96875V15.5969C9.5 15.0461 10.2266 14.3 11.1562 13.3625C12.0938 12.4172 12.6797 11.8079 12.9219 11.5344C13.3789 11.0266 13.6953 10.593 13.875 10.2375C14.0508 9.88599 14.1406 9.53442 14.1406 9.19067C14.1406 8.63989 13.9414 8.18677 13.5469 7.8313C13.1602 7.47974 12.6562 7.30005 12.0312 7.30005C11.582 7.30005 11.1094 7.37817 10.6094 7.53442C10.1172 7.69067 9.59375 7.92505 9.03125 8.23755V6.80005C9.60156 6.57349 10.1328 6.40161 10.625 6.28442C11.125 6.17114 11.582 6.11255 12 6.11255C13.082 6.11255 13.9453 6.38599 14.5938 6.92505C15.25 7.46802 15.5781 8.19067 15.5781 9.09692C15.5781 9.53442 15.4922 9.94849 15.3281 10.3313C15.1719 10.718 14.8789 11.175 14.4531 11.7063C14.3281 11.843 13.9531 12.2336 13.3281 12.8782C12.7031 13.5266 11.8164 14.4329 10.6719 15.5969Z" fill="#202124"/>
</g>
<defs>
<clipPath id="clip0_2914_152087">
<rect width="24" height="24" fill="white"/>
</clipPath>
</defs>
</svg>
