<svg width="24" height="24" viewBox="0 0 24 24" fill="none" xmlns="http://www.w3.org/2000/svg">
<g clip-path="url(#clip0_2914_152100)">
<path fill-rule="evenodd" clip-rule="evenodd" d="M24 12C24 18.6289 18.6289 24 12 24C5.37109 24 0 18.6289 0 12C0 5.37109 5.37109 0 12 0C18.6289 0 24 5.37109 24 12Z" fill="white" fill-opacity="0.14"/>
<path d="M13.75 11.1438C14.4258 11.2922 14.957 11.593 15.3438 12.05C15.7266 12.511 15.9219 13.0774 15.9219 13.7532C15.9219 14.7844 15.5625 15.5891 14.8438 16.1594C14.1328 16.7219 13.125 17.0032 11.8125 17.0032C11.375 17.0032 10.9219 16.9563 10.4531 16.8625C9.98438 16.7805 9.5 16.6555 9 16.4875V15.1125C9.39453 15.343 9.82812 15.5188 10.2969 15.6438C10.7656 15.761 11.2539 15.8157 11.7656 15.8157C12.6602 15.8157 13.3359 15.6399 13.7969 15.2844C14.2656 14.9329 14.5 14.4211 14.5 13.7532C14.5 13.1282 14.2812 12.6438 13.8438 12.3C13.4141 11.9485 12.8164 11.7688 12.0469 11.7688H10.8125V10.5969H12.0938C12.7891 10.5969 13.3281 10.4641 13.7031 10.1907C14.0781 9.90942 14.2656 9.50317 14.2656 8.97192C14.2656 8.44067 14.0703 8.03052 13.6875 7.73755C13.3008 7.44849 12.7539 7.30005 12.0469 7.30005C11.6484 7.30005 11.2266 7.34302 10.7812 7.42505C10.3438 7.51099 9.85156 7.6438 9.3125 7.8313V6.56567C9.85156 6.40942 10.3594 6.29614 10.8281 6.22192C11.3047 6.15161 11.7539 6.11255 12.1719 6.11255C13.2422 6.11255 14.0938 6.35864 14.7188 6.84692C15.3516 7.33911 15.6719 7.99927 15.6719 8.8313C15.6719 9.41724 15.5039 9.90942 15.1719 10.3157C14.8359 10.7141 14.3633 10.9875 13.75 11.1438Z" fill="#202124"/>
</g>
<defs>
<clipPath id="clip0_2914_152100">
<rect width="24" height="24" fill="white"/>
</clipPath>
</defs>
</svg>
