<svg width="24" height="24" viewBox="0 0 24 24" fill="none" xmlns="http://www.w3.org/2000/svg">
<g clip-path="url(#clip0_2914_152106)">
<path d="M11.2974 23.9691C11.2422 23.9629 11.0357 23.9435 10.8386 23.9259C7.9012 23.6647 5.02719 22.2027 3.04321 19.9606C1.30918 18.0009 0.298379 15.6508 0.057063 13.018C0.0164608 12.575 0.0164608 11.4251 0.057063 10.9821C0.296145 8.37366 1.30103 6.02137 3.00302 4.08607C4.99885 1.81666 7.76051 0.393994 10.7956 0.0717182C11.6309 -0.0169767 12.7717 0.00709075 13.6754 0.132471C18.0403 0.73809 21.7623 3.75728 23.2685 7.91403C23.8018 9.3859 24.0293 10.8942 23.9659 12.5377C23.8182 16.3662 21.7784 19.9348 18.5312 22.0455C16.9453 23.0763 15.2254 23.6918 13.3046 23.9158C12.9429 23.958 11.5317 23.9955 11.2974 23.9691ZM12.8744 16.9462C14.6065 16.6827 15.6351 15.8069 15.8881 14.38C15.9409 14.0822 15.9343 13.3868 15.8763 13.1294C15.77 12.6581 15.577 12.2821 15.2727 11.9534C14.9579 11.6133 14.4806 11.3251 14.0262 11.2006C13.8212 11.1445 13.8217 11.1416 14.0501 11.068C14.1368 11.04 14.2981 10.9723 14.4085 10.9174C15.2877 10.4807 15.7322 9.69442 15.6757 8.67604C15.6368 7.97433 15.4035 7.46645 14.9036 6.99521C14.348 6.47154 13.6327 6.19815 12.6059 6.11714C11.7198 6.04722 10.4808 6.20811 9.34039 6.54123C9.29453 6.55463 9.29022 6.61122 9.29022 7.19912C9.29022 7.55289 9.29867 7.84234 9.309 7.84234C9.31932 7.84234 9.46448 7.79822 9.63158 7.74428C10.47 7.47366 11.1134 7.35444 11.8466 7.33385C12.4632 7.31653 12.7362 7.34644 13.1166 7.47296C13.4361 7.57921 13.6542 7.71006 13.8381 7.9058C14.1108 8.19599 14.2174 8.45161 14.2423 8.87486C14.2811 9.53298 13.9944 10.0496 13.4395 10.3217C13.0181 10.5284 12.5266 10.5948 11.4192 10.595L10.8099 10.595V11.1828V11.7707L11.3906 11.7707C12.4614 11.7708 12.9518 11.8376 13.3832 12.042C13.9175 12.2951 14.2432 12.6496 14.3986 13.147C14.4566 13.3326 14.4656 13.4189 14.4641 13.7778C14.4626 14.1492 14.4542 14.2183 14.3856 14.4252C14.2125 14.9471 13.82 15.3434 13.2632 15.5586C12.4422 15.8758 11.1357 15.8797 10.1037 15.5679C9.77436 15.4684 9.34298 15.2903 9.13275 15.1671C9.06676 15.1284 9.00423 15.0968 8.99378 15.0968C8.98334 15.0968 8.9748 15.4121 8.9748 15.7976V16.4983L9.22569 16.5753C9.84334 16.7648 10.5904 16.9216 11.197 16.9889C11.5257 17.0254 12.5199 17.0001 12.8744 16.9462Z" fill="#386AFF"/>
</g>
<defs>
<clipPath id="clip0_2914_152106">
<rect width="24" height="24" fill="white"/>
</clipPath>
</defs>
</svg>
