<?xml version="1.0" encoding="UTF-8"?>
<svg xmlns="http://www.w3.org/2000/svg" xmlns:xlink="http://www.w3.org/1999/xlink" width="24px" height="24px" viewBox="0 0 24 24" version="1.1">
<g id="surface1">
<path style=" stroke:none;fill-rule:evenodd;fill:rgb(54.11765%,70.588237%,97.254902%);fill-opacity:1;" d="M 12 2 C 6.480469 2 2 6.480469 2 12 C 2 17.519531 6.480469 22 12 22 C 17.519531 22 22 17.519531 22 12 C 22 6.480469 17.519531 2 12 2 Z M 12 20 C 7.589844 20 4 16.410156 4 12 C 4 7.589844 7.589844 4 12 4 C 16.410156 4 20 7.589844 20 12 C 20 16.410156 16.410156 20 12 20 Z M 10 14.199219 L 7.398438 11.601562 L 6 13 L 10 17 L 18 9 L 16.601562 7.601562 Z M 10 14.199219 "/>
</g>
</svg>
