<svg width="24" height="24" viewBox="0 0 24 24" fill="none" xmlns="http://www.w3.org/2000/svg">
<path d="M11.0825 21.946C10.6716 21.9106 10.0168 21.7964 9.55755 21.68C7.84083 21.2449 6.30776 20.3841 5.03679 19.1417C3.3635 17.5061 2.35622 15.4571 2.07562 13.1183C2.00735 12.5493 2.00735 11.4508 2.07562 10.8818C2.30364 8.98122 3.02292 7.25129 4.20372 5.76348C4.53686 5.34372 5.41055 4.47788 5.82089 4.16085C7.40975 2.93325 9.19337 2.22392 11.1255 2.05122C11.5491 2.01336 12.4511 2.01336 12.8746 2.05122C15.1704 2.25641 17.3093 3.24247 18.9637 4.85837C20.4548 6.31467 21.4278 8.12418 21.8172 10.1649C22.0329 11.295 22.0331 12.6974 21.8177 13.8352C21.1489 17.3688 18.6292 20.278 15.2245 21.4479C14.4868 21.7014 13.6216 21.8847 12.8603 21.9489C12.4574 21.9829 11.493 21.9814 11.0825 21.946ZM12.8399 19.9693C15.9109 19.6307 18.4832 17.6081 19.5472 14.6954C19.6883 14.309 19.8578 13.6265 19.9324 13.1439C19.9858 12.798 19.9961 12.613 19.9961 12C19.9961 11.3871 19.9858 11.2021 19.9324 10.8562C19.6576 9.07857 18.8948 7.5709 17.638 6.32142C16.3869 5.0776 14.8646 4.32316 13.061 4.05303C12.7098 4.00043 11.2904 4.00043 10.9392 4.05303C9.44042 4.2775 8.11862 4.84785 6.96784 5.76663C6.65207 6.01873 6.00031 6.67113 5.75353 6.98212C4.85145 8.11891 4.29227 9.40401 4.06785 10.8562C3.97566 11.4526 3.97566 12.5474 4.06785 13.1439C4.34139 14.9139 5.10535 16.4283 6.34814 17.6643C6.79194 18.1056 7.0749 18.337 7.59383 18.6828C8.63039 19.3735 9.86998 19.8246 11.1255 19.968C11.4408 20.004 12.5177 20.0049 12.8399 19.9693Z" fill="#386AFF"/>
<path d="M8.0069 14.9748L6.02124 12.989L6.70954 12.3011L7.39784 11.6133L8.70248 12.9177L10.0071 14.2221L13.3045 10.9248L16.6019 7.62756L17.2902 8.31547L17.9786 9.00337L14 12.982C11.8118 15.1702 10.015 16.9606 10.007 16.9606C9.99906 16.9606 9.09901 16.067 8.0069 14.9748Z" fill="#386AFF"/>
</svg>
