<svg xmlns="http://www.w3.org/2000/svg" width="16" height="16" viewBox="0 0 16 16">
  <g fill="none" fill-rule="evenodd">
    <polygon points="0 0 16 0 16 16 0 16"/>
    <path fill="#FFF" fill-rule="nonzero" d="M7.99333333,1.33333333 C4.31333333,1.33333333 1.33333333,4.32 1.33333333,8 C1.33333333,11.68 4.31333333,14.6666667 7.99333333,14.6666667 C11.68,14.6666667 14.6666667,11.68 14.6666667,8 C14.6666667,4.32 11.68,1.33333333 7.99333333,1.33333333 Z M12.6133333,5.33333333 L10.6466667,5.33333333 C10.4333333,4.5 10.1266667,3.7 9.72666667,2.96 C10.9533333,3.38 11.9733333,4.23333333 12.6133333,5.33333333 Z M8,2.69333333 C8.55333333,3.49333333 8.98666667,4.38 9.27333333,5.33333333 L6.72666667,5.33333333 C7.01333333,4.38 7.44666667,3.49333333 8,2.69333333 Z M2.84,9.33333333 C2.73333333,8.90666667 2.66666667,8.46 2.66666667,8 C2.66666667,7.54 2.73333333,7.09333333 2.84,6.66666667 L5.09333333,6.66666667 C5.04,7.10666667 5,7.54666667 5,8 C5,8.45333333 5.04,8.89333333 5.09333333,9.33333333 L2.84,9.33333333 Z M3.38666667,10.6666667 L5.35333333,10.6666667 C5.56666667,11.5 5.87333333,12.3 6.27333333,13.04 C5.04666667,12.62 4.02666667,11.7733333 3.38666667,10.6666667 L3.38666667,10.6666667 Z M5.35333333,5.33333333 L3.38666667,5.33333333 C4.02666667,4.22666667 5.04666667,3.38 6.27333333,2.96 C5.87333333,3.7 5.56666667,4.5 5.35333333,5.33333333 L5.35333333,5.33333333 Z M8,13.3066667 C7.44666667,12.5066667 7.01333333,11.62 6.72666667,10.6666667 L9.27333333,10.6666667 C8.98666667,11.62 8.55333333,12.5066667 8,13.3066667 Z M9.56,9.33333333 L6.44,9.33333333 C6.38,8.89333333 6.33333333,8.45333333 6.33333333,8 C6.33333333,7.54666667 6.38,7.1 6.44,6.66666667 L9.56,6.66666667 C9.62,7.1 9.66666667,7.54666667 9.66666667,8 C9.66666667,8.45333333 9.62,8.89333333 9.56,9.33333333 Z M9.72666667,13.04 C10.1266667,12.3 10.4333333,11.5 10.6466667,10.6666667 L12.6133333,10.6666667 C11.9733333,11.7666667 10.9533333,12.62 9.72666667,13.04 L9.72666667,13.04 Z M10.9066667,9.33333333 C10.96,8.89333333 11,8.45333333 11,8 C11,7.54666667 10.96,7.10666667 10.9066667,6.66666667 L13.16,6.66666667 C13.2666667,7.09333333 13.3333333,7.54 13.3333333,8 C13.3333333,8.46 13.2666667,8.90666667 13.16,9.33333333 L10.9066667,9.33333333 Z"/>
  </g>
</svg>
