<?xml version="1.0" encoding="UTF-8"?>
<svg xmlns="http://www.w3.org/2000/svg" xmlns:xlink="http://www.w3.org/1999/xlink" width="36px" height="36px" viewBox="0 0 36 36" version="1.1">
<g id="surface1">
<path style=" stroke:none;fill-rule:evenodd;fill:rgb(90.980393%,91.764706%,92.941177%);fill-opacity:0.3;" d="M 23.398438 9 L 21.601562 9 L 21.601562 5.398438 L 14.398438 5.398438 L 14.398438 9 L 12.601562 9 C 11.699219 9 10.800781 9.898438 10.800781 10.800781 L 10.800781 28.800781 C 10.800781 29.699219 11.699219 30.601562 12.601562 30.601562 L 23.398438 30.601562 C 24.300781 30.601562 25.199219 29.699219 25.199219 28.800781 L 25.199219 10.800781 C 25.199219 9.898438 24.300781 9 23.398438 9 Z M 23.398438 9 "/>
<path style=" stroke:none;fill-rule:evenodd;fill:rgb(90.980393%,91.764706%,92.941177%);fill-opacity:1;" d="M 25.199219 28.800781 C 25.199219 29.699219 24.300781 30.601562 23.398438 30.601562 L 12.601562 30.601562 C 11.699219 30.601562 10.800781 29.699219 10.800781 28.800781 Z M 25.199219 28.800781 "/>
<path style=" stroke:none;fill-rule:evenodd;fill:rgb(90.980393%,91.764706%,92.941177%);fill-opacity:1;" d="M 16.199219 10.800781 L 19.800781 10.800781 L 19.800781 19.800781 L 16.199219 19.800781 Z M 16.199219 21.601562 L 19.800781 21.601562 L 19.800781 25.199219 L 16.199219 25.199219 Z M 16.199219 21.601562 "/>
</g>
</svg>
