<?xml version="1.0" encoding="UTF-8"?>
<svg xmlns="http://www.w3.org/2000/svg" xmlns:xlink="http://www.w3.org/1999/xlink" width="24px" height="24px" viewBox="0 0 24 24" version="1.1">
<g id="surface1">
<path style=" stroke:none;fill-rule:evenodd;fill:rgb(94.901961%,54.509807%,50.980395%);fill-opacity:1;" d="M 12 0 C 18.628906 0 24 5.371094 24 12 C 24 18.628906 18.628906 24 12 24 C 5.371094 24 0 18.628906 0 12 C 0 5.371094 5.371094 0 12 0 Z M 12 3 C 7.03125 3 3 7.03125 3 12 C 3 16.96875 7.03125 21 12 21 C 16.96875 21 21 16.96875 21 12 C 21 7.03125 16.96875 3 12 3 Z M 13.199219 15.601562 L 13.199219 18 L 10.800781 18 L 10.800781 15.601562 Z M 13.199219 6 L 13.199219 13.199219 L 10.800781 13.199219 L 10.800781 6 Z M 13.199219 6 "/>
</g>
</svg>
