<svg width="290" height="32" viewBox="0 0 290 32" fill="none" xmlns="http://www.w3.org/2000/svg">
<g clip-path="url(#clip0_2914_152140)">
<rect width="290" height="32" fill="#202124"/>
<path d="M2.8125 31.3492C1.53264 30.7153 0.560736 29.3803 0.234257 27.8076C0.0631716 26.9835 0.00179864 22.8546 0.0476295 15.252L0.115917 3.9243L0.707674 2.77489C1.12783 1.95879 1.62633 1.42338 2.42673 0.928525L3.55402 0.23157L144.747 0.173097L285.94 0.114624L287.129 0.69672C288.602 1.41724 289.453 2.5906 289.778 4.34719C289.932 5.18211 289.996 9.73649 289.953 16.8505L289.884 28.0405L289.293 29.1898C288.934 29.8854 288.309 30.6143 287.709 31.0362L286.717 31.7332L145.27 31.7912L3.82199 31.8492L2.8125 31.3492ZM286.87 29.4938C288.142 28.4933 288.147 28.4384 288.147 15.9824C288.147 3.30561 288.147 3.31257 286.713 2.43799L285.947 1.97052H145H4.05362L3.28688 2.43799C1.8524 3.31257 1.85314 3.30561 1.85314 15.9824C1.85314 28.4384 1.85833 28.4933 3.13027 29.4938L3.76865 29.9959H145H286.232L286.87 29.4938Z" fill="#386AFF"/>
</g>
<defs>
<clipPath id="clip0_2914_152140">
<rect width="290" height="32" fill="white"/>
</clipPath>
</defs>
</svg>
