<svg xmlns="http://www.w3.org/2000/svg" width="40" height="24" viewBox="0 0 40 24">
  <g fill="none" fill-rule="evenodd">
    <rect width="39" height="23" x=".5" y=".5" stroke="#91979D" rx="4"/>
    <path fill="#9AA0A6" d="M9.96984848,4.03015152 C9.69648148,3.75678451 9.69648148,3.31356903 9.96984848,3.04020203 C10.2432155,2.76683502 10.686431,2.76683502 10.959798,3.04020203 C12.0027698,4.08317381 12.6,5.49518469 12.6,7 C12.6,10.0927946 10.0927946,12.6 7,12.6 C3.9072054,12.6 1.4,10.0927946 1.4,7 C1.4,5.49518469 1.99723024,4.08317381 3.04020203,3.04020203 C3.31356903,2.76683502 3.75678451,2.76683502 4.03015152,3.04020203 C4.30351852,3.31356903 4.30351852,3.75678451 4.03015152,4.03015152 C3.24712793,4.81317511 2.8,5.87030427 2.8,7 C2.8,9.31959595 4.68040405,11.2 7,11.2 C9.31959595,11.2 11.2,9.31959595 11.2,7 C11.2,5.87030427 10.7528721,4.81317511 9.96984848,4.03015152 Z M6.3,2.1 C6.3,1.71340068 6.61340068,1.4 7,1.4 C7.38659932,1.4 7.7,1.71340068 7.7,2.1 L7.7,7.7 C7.7,8.08659932 7.38659932,8.4 7,8.4 C6.61340068,8.4 6.3,8.08659932 6.3,7.7 L6.3,2.1 Z" transform="translate(13 5)"/>
  </g>
</svg>
