<svg xmlns="http://www.w3.org/2000/svg" width="66" height="24" viewBox="0 0 66 24">
  <g fill="none" fill-rule="evenodd">
    <path fill="#9AA0A6" fill-rule="nonzero" d="M13.552,15.192 C14.2,15.192 14.756,15.048 15.22,14.76 C15.684,14.472 16.056,14.076 16.336,13.572 L16.336,13.572 L15.268,13.056 C15.1,13.352 14.876,13.59 14.596,13.77 C14.316,13.95 13.98,14.04 13.588,14.04 C13.108,14.04 12.688,13.882 12.328,13.566 C11.968,13.25 11.76,12.8 11.704,12.216 L11.704,12.216 L16.432,12.216 C16.448,12.104 16.456,11.968 16.456,11.808 C16.456,11.208 16.338,10.672 16.102,10.2 C15.866,9.728 15.524,9.358 15.076,9.09 C14.628,8.822 14.096,8.688 13.48,8.688 C12.896,8.688 12.372,8.836 11.908,9.132 C11.444,9.428 11.082,9.826 10.822,10.326 C10.562,10.826 10.432,11.368 10.432,11.952 C10.432,12.568 10.566,13.122 10.834,13.614 C11.102,14.106 11.474,14.492 11.95,14.772 C12.426,15.052 12.96,15.192 13.552,15.192 Z M15.172,11.244 L11.776,11.244 C11.888,10.804 12.094,10.452 12.394,10.188 C12.694,9.924 13.06,9.792 13.492,9.792 C13.852,9.792 14.154,9.866 14.398,10.014 C14.642,10.162 14.828,10.348 14.956,10.572 C15.084,10.796 15.156,11.02 15.172,11.244 L15.172,11.244 Z M18.952,15 L18.952,11.712 C18.952,11.384 19.018,11.08 19.15,10.8 C19.282,10.52 19.466,10.296 19.702,10.128 C19.938,9.96 20.208,9.876 20.512,9.876 C20.928,9.876 21.256,9.994 21.496,10.23 C21.736,10.466 21.856,10.824 21.856,11.304 L21.856,11.304 L21.856,15 L23.14,15 L23.14,11.136 C23.14,10.376 22.948,9.778 22.564,9.342 C22.18,8.906 21.62,8.688 20.884,8.688 C20.476,8.688 20.096,8.784 19.744,8.976 C19.392,9.168 19.128,9.416 18.952,9.72 L18.952,9.72 L18.88,9.72 L18.88,8.88 L17.656,8.88 L17.656,15 L18.952,15 Z M26.824,15.096 C27.2,15.096 27.524,15.036 27.796,14.916 L27.796,14.916 L27.796,13.656 C27.668,13.736 27.552,13.794 27.448,13.83 C27.344,13.866 27.22,13.884 27.076,13.884 C26.796,13.884 26.588,13.808 26.452,13.656 C26.324,13.52 26.26,13.284 26.26,12.948 L26.26,12.948 L26.26,10.008 L27.76,10.008 L27.76,8.88 L26.26,8.88 L26.26,7.152 L24.964,7.152 L24.964,8.88 L23.896,8.88 L23.896,10.008 L24.964,10.008 L24.964,13.224 C24.964,13.824 25.136,14.288 25.48,14.616 C25.632,14.768 25.826,14.886 26.062,14.97 C26.298,15.054 26.552,15.096 26.824,15.096 Z M31.576,15.192 C32.224,15.192 32.78,15.048 33.244,14.76 C33.708,14.472 34.08,14.076 34.36,13.572 L34.36,13.572 L33.292,13.056 C33.124,13.352 32.9,13.59 32.62,13.77 C32.34,13.95 32.004,14.04 31.612,14.04 C31.132,14.04 30.712,13.882 30.352,13.566 C29.992,13.25 29.784,12.8 29.728,12.216 L29.728,12.216 L34.456,12.216 C34.472,12.104 34.48,11.968 34.48,11.808 C34.48,11.208 34.362,10.672 34.126,10.2 C33.89,9.728 33.548,9.358 33.1,9.09 C32.652,8.822 32.12,8.688 31.504,8.688 C30.92,8.688 30.396,8.836 29.932,9.132 C29.468,9.428 29.106,9.826 28.846,10.326 C28.586,10.826 28.456,11.368 28.456,11.952 C28.456,12.568 28.59,13.122 28.858,13.614 C29.126,14.106 29.498,14.492 29.974,14.772 C30.45,15.052 30.984,15.192 31.576,15.192 Z M33.196,11.244 L29.8,11.244 C29.912,10.804 30.118,10.452 30.418,10.188 C30.718,9.924 31.084,9.792 31.516,9.792 C31.876,9.792 32.178,9.866 32.422,10.014 C32.666,10.162 32.852,10.348 32.98,10.572 C33.108,10.796 33.18,11.02 33.196,11.244 L33.196,11.244 Z M36.976,15 L36.976,11.76 C36.976,11.256 37.124,10.828 37.42,10.476 C37.716,10.124 38.092,9.948 38.548,9.948 C38.852,9.948 39.168,10.02 39.496,10.164 L39.496,10.164 L39.496,8.82 C39.28,8.74 39.032,8.7 38.752,8.7 C38.368,8.7 38.01,8.802 37.678,9.006 C37.346,9.21 37.112,9.468 36.976,9.78 L36.976,9.78 L36.904,9.78 L36.904,8.88 L35.68,8.88 L35.68,15 L36.976,15 Z"/>
    <rect width="65" height="23" x=".5" y=".5" stroke="#91979D" rx="4"/>
    <polygon fill="#9AA0A6" points="11.9 8.4 4.506 8.4 6.618 10.336 5.726 11.2 2.1 7.7 5.726 4.2 6.611 5.064 4.506 7 10.5 7 10.5 2.8 11.9 2.8" transform="translate(44 5)"/>
  </g>
</svg>
