<svg xmlns="http://www.w3.org/2000/svg" xmlns:xlink="http://www.w3.org/1999/xlink" width="24" height="24" viewBox="0 0 24 24">
  <defs>
    <path id="nav-button_volume_up-a" d="M0.7,9.1 L3.12666669,9.1 L5.6,11.48 L5.6,2.38 L3.12666669,4.9 L0.7,4.9 L0.7,9.1 Z M7,4.48 L7,9.38 C8.2432,8.93565217 8.75,7.63304348 8.75,6.93 C8.75,6.22695652 8.2432,4.93043478 7,4.48 Z M7,2.9131813 C8.734,3.42800456 10.15,5.03233751 10.15,6.93 C10.15,8.82766249 8.734,10.4319954 7,10.9468187 L7,12.18 C9.406,11.6352452 11.2,9.49214367 11.2,6.93 C11.2,4.36785633 9.406,2.22475485 7,1.68 L7,2.9131813 Z"/>
    <path id="nav-button_volume_up-b" d="M0.7,9.1 L3.12666669,9.1 L5.6,11.48 L5.6,2.38 L3.12666669,4.9 L0.7,4.9 L0.7,9.1 Z M7,4.48 L7,9.38 C8.2432,8.93565217 8.75,7.63304348 8.75,6.93 C8.75,6.22695652 8.2432,4.93043478 7,4.48 Z M7,2.9131813 C8.734,3.42800456 10.15,5.03233751 10.15,6.93 C10.15,8.82766249 8.734,10.4319954 7,10.9468187 L7,12.18 C9.406,11.6352452 11.2,9.49214367 11.2,6.93 C11.2,4.36785633 9.406,2.22475485 7,1.68 L7,2.9131813 Z"/>
  </defs>
  <g fill="none" fill-rule="evenodd">
    <use fill="#9AA0A6" transform="translate(5 5)" xlink:href="#nav-button_volume_up-a"/>
    <rect width="23" height="23" x=".5" y=".5" stroke="#91979D" rx="4"/>
    <use fill="#9AA0A6" transform="translate(5 5)" xlink:href="#nav-button_volume_up-b"/>
  </g>
</svg>
