<svg width="16" height="16" viewBox="0 0 16 16" fill="none" xmlns="http://www.w3.org/2000/svg">
<g clip-path="url(#clip0_2914_152148)">
<path d="M20 0H0V20H20V0Z" fill="#202124"/>
<path d="M7.54121 15.9793C7.49915 15.9753 7.35722 15.9625 7.2258 15.9509C6.89231 15.9216 6.38786 15.8335 6.02892 15.7421C3.06694 14.9874 0.779916 12.5875 0.171226 9.59534C0.0458574 8.97906 -0.00288327 8.3431 0.0222828 7.65198C0.0900396 5.79119 0.834757 4.00055 2.12999 2.5841C2.45317 2.23067 2.58879 2.13956 2.88105 2.07954C3.36477 1.9802 3.87384 2.30767 4.00567 2.80298C4.04149 2.93753 4.04079 3.16566 4.00413 3.30637C3.95826 3.48251 3.88709 3.59281 3.66068 3.83859C3.37093 4.15315 3.20207 4.36698 2.97865 4.70227C2.76835 5.01787 2.49707 5.54782 2.37185 5.88768C1.96568 6.99008 1.88495 8.13299 2.13123 9.29437C2.31517 10.1618 2.75141 11.0653 3.33756 11.793C4.16122 12.8155 5.37588 13.5703 6.66128 13.8585C7.08655 13.9538 7.35937 13.9859 7.84124 13.997C8.47204 14.0115 8.90497 13.9667 9.45709 13.8296C11.4585 13.3325 13.0757 11.8257 13.7132 9.86379C14.0418 8.85263 14.0962 7.75465 13.8694 6.71307C13.762 6.22027 13.6245 5.82907 13.3911 5.35244C13.1048 4.76784 12.8075 4.34268 12.3074 3.80264C12.044 3.51825 11.966 3.34583 11.967 3.04974C11.9676 2.87007 11.9911 2.76615 12.0649 2.61604C12.2598 2.22013 12.7121 1.99285 13.1293 2.0812C13.4133 2.14133 13.5502 2.23431 13.8699 2.5841C15.0415 3.86599 15.7405 5.39844 15.9437 7.13022C15.9991 7.60235 15.9948 8.4554 15.9344 8.94623C15.661 11.1709 14.4992 13.1463 12.687 14.4678C12.0399 14.9398 11.2017 15.3663 10.4468 15.6077C9.97317 15.7593 9.39115 15.8832 8.86978 15.9435C8.62835 15.9715 7.71499 15.9961 7.54121 15.9793Z" fill="#386AFF"/>
<path d="M7.76108 9.95757C7.57712 9.90874 7.45278 9.83561 7.31153 9.69316C7.23775 9.61876 7.15417 9.51423 7.12578 9.46088C7.00835 9.24016 7.01554 9.53182 7.01579 4.99951C7.01598 1.47261 7.02006 0.844973 7.04333 0.757525C7.1735 0.268463 7.65527 -0.0521314 8.14591 0.0238128C8.53083 0.0833919 8.8555 0.377188 8.95673 0.757525C8.98 0.844973 8.98408 1.47261 8.98427 4.99951C8.98452 9.53182 8.99171 9.24016 8.87428 9.46088C8.79542 9.6091 8.57788 9.81801 8.43014 9.88739C8.21284 9.98944 7.9751 10.0144 7.76108 9.95757Z" fill="#386AFF"/>
</g>
<defs>
<clipPath id="clip0_2914_152148">
<rect width="16" height="16" fill="white"/>
</clipPath>
</defs>
</svg>
