<svg width="16" height="16" viewBox="0 0 16 16" fill="none" xmlns="http://www.w3.org/2000/svg">
<g clip-path="url(#clip0_2914_152143)">
<path d="M20 0H0V20H20V0Z" fill="#2B2F37"/>
<path d="M7.54119 15.9794C7.49914 15.9753 7.3572 15.9626 7.22578 15.951C6.73317 15.9076 6.05615 15.7687 5.55314 15.6078C4.27284 15.1983 3.03244 14.4032 2.12549 13.4109C0.836867 12.001 0.0916114 10.2105 0.0228208 8.35933C-0.0121138 7.41921 0.0836779 6.61069 0.331548 5.75357C0.681466 4.54356 1.37865 3.34591 2.24609 2.46467C2.50606 2.20057 2.61502 2.1342 2.87692 2.08044C3.08254 2.03823 3.2706 2.06397 3.47612 2.16246C3.73438 2.28622 3.9509 2.55157 4.01279 2.82018C4.04175 2.94585 4.03762 3.17786 4.00412 3.30644C3.95758 3.48515 3.88698 3.59247 3.63372 3.86955C3.34319 4.18741 3.18036 4.39519 2.95845 4.73124C2.76735 5.02064 2.48962 5.5684 2.37042 5.89098C1.89753 7.17077 1.86795 8.57516 2.28675 9.86385C2.57513 10.7513 3.08379 11.5802 3.74686 12.2432C4.68683 13.1832 5.83548 13.7541 7.19711 13.9579C7.52599 14.0072 8.47396 14.0072 8.80284 13.9579C9.57704 13.842 10.269 13.6143 10.8865 13.2722C12.3561 12.4581 13.4139 11.0928 13.8226 9.48277C14.2349 7.85814 13.9447 6.10193 13.0363 4.72388C12.8201 4.39587 12.6557 4.18628 12.3662 3.86955C12.113 3.59247 12.0424 3.48515 11.9958 3.30644C11.9623 3.17767 11.9582 2.94582 11.9872 2.81965C12.1022 2.32041 12.6353 1.97696 13.1325 2.08184C13.3771 2.13342 13.4977 2.20614 13.7349 2.44513C15.075 3.79502 15.9059 5.72064 15.9771 7.64163C16.0424 9.40392 15.604 10.9848 14.653 12.4158C13.8752 13.5861 12.8542 14.4924 11.5937 15.1313C10.7368 15.5657 9.84989 15.8301 8.86971 15.9436C8.62828 15.9715 7.71498 15.9962 7.54119 15.9794Z" fill="#386AFF"/>
<path d="M7.76099 9.95764C7.57702 9.90881 7.45269 9.83568 7.31144 9.69323C7.23766 9.61883 7.15407 9.5143 7.12569 9.46095C7.00826 9.24024 7.01547 9.53183 7.01547 4.99882C7.01547 1.34088 7.01888 0.845599 7.04477 0.7462C7.12367 0.443272 7.36425 0.183649 7.67195 0.0693765C8.19078 -0.123306 8.79964 0.193089 8.94941 0.733212C8.98283 0.853714 8.9844 1.04591 8.9844 4.99917C8.9844 9.5318 8.9916 9.24024 8.87419 9.46095C8.79533 9.60917 8.57778 9.81808 8.43004 9.88746C8.21275 9.98951 7.97501 10.0144 7.76099 9.95764Z" fill="#386AFF"/>
</g>
<defs>
<clipPath id="clip0_2914_152143">
<rect width="16" height="16" fill="white"/>
</clipPath>
</defs>
</svg>
