<svg xmlns="http://www.w3.org/2000/svg" width="16" height="16" viewBox="0 0 16 16">
  <rect x="0" y="0" width="20" height="20" style="fill:rgb(16.862745%,18.431373%,21.568627%);fill-opacity:1;stroke:none;"/>
  <path fill="#8AB4F8" fill-rule="evenodd" d="M14.2426407,5.75735931 C13.8521164,5.36683502 13.8521164,4.73367004 14.2426407,4.34314575 C14.633165,3.95262146 15.26633,3.95262146 15.6568542,4.34314575 C17.1468139,5.83310545 18,7.85026384 18,10 C18,14.418278 14.418278,18 10,18 C5.581722,18 2,14.418278 2,10 C2,7.85026384 2.85318606,5.83310545 4.34314575,4.34314575 C4.73367004,3.95262146 5.36683502,3.95262146 5.75735931,4.34314575 C6.1478836,4.73367004 6.1478836,5.36683502 5.75735931,5.75735931 C4.63875419,6.87596444 4,8.38614896 4,10 C4,13.3137085 6.6862915,16 10,16 C13.3137085,16 16,13.3137085 16,10 C16,8.38614896 15.3612458,6.87596444 14.2426407,5.75735931 Z M9,3 C9,2.44771525 9.44771525,2 10,2 C10.5522847,2 11,2.44771525 11,3 L11,11 C11,11.5522847 10.5522847,12 10,12 C9.44771525,12 9,11.5522847 9,11 L9,3 Z" transform="translate(-2 -2)"/>
</svg>
