<?xml version="1.0" encoding="UTF-8"?>
<svg xmlns="http://www.w3.org/2000/svg" xmlns:xlink="http://www.w3.org/1999/xlink" width="86px" height="86px" viewBox="0 0 86 86" version="1.1">
<g id="surface1">
<rect x="0" y="0" width="86" height="86" style="fill:rgb(80.000001%,80.000001%,80.000001%);fill-opacity:1;stroke:none;"/>
<path style=" stroke:none;fill-rule:nonzero;fill:rgb(12.54902%,12.941177%,14.117648%);fill-opacity:1;" d="M 5.210938 5.210938 L 7.816406 5.210938 L 7.816406 7.816406 L 5.210938 7.816406 Z M 7.816406 5.210938 L 10.425781 5.210938 L 10.425781 7.816406 L 7.816406 7.816406 Z M 10.425781 5.210938 L 13.03125 5.210938 L 13.03125 7.816406 L 10.425781 7.816406 Z M 13.03125 5.210938 L 15.636719 5.210938 L 15.636719 7.816406 L 13.03125 7.816406 Z M 15.636719 5.210938 L 18.242188 5.210938 L 18.242188 7.816406 L 15.636719 7.816406 Z M 18.242188 5.210938 L 20.847656 5.210938 L 20.847656 7.816406 L 18.242188 7.816406 Z M 20.847656 5.210938 L 23.453125 5.210938 L 23.453125 7.816406 L 20.847656 7.816406 Z M 28.667969 5.210938 L 31.273438 5.210938 L 31.273438 7.816406 L 28.667969 7.816406 Z M 44.304688 5.210938 L 46.910156 5.210938 L 46.910156 7.816406 L 44.304688 7.816406 Z M 46.910156 5.210938 L 49.515625 5.210938 L 49.515625 7.816406 L 46.910156 7.816406 Z M 49.515625 5.210938 L 52.121094 5.210938 L 52.121094 7.816406 L 49.515625 7.816406 Z M 52.121094 5.210938 L 54.726562 5.210938 L 54.726562 7.816406 L 52.121094 7.816406 Z M 54.726562 5.210938 L 57.332031 5.210938 L 57.332031 7.816406 L 54.726562 7.816406 Z M 57.332031 5.210938 L 59.9375 5.210938 L 59.9375 7.816406 L 57.332031 7.816406 Z M 62.546875 5.210938 L 65.152344 5.210938 L 65.152344 7.816406 L 62.546875 7.816406 Z M 65.152344 5.210938 L 67.757812 5.210938 L 67.757812 7.816406 L 65.152344 7.816406 Z M 67.757812 5.210938 L 70.363281 5.210938 L 70.363281 7.816406 L 67.757812 7.816406 Z M 70.363281 5.210938 L 72.96875 5.210938 L 72.96875 7.816406 L 70.363281 7.816406 Z M 72.96875 5.210938 L 75.574219 5.210938 L 75.574219 7.816406 L 72.96875 7.816406 Z M 75.574219 5.210938 L 78.183594 5.210938 L 78.183594 7.816406 L 75.574219 7.816406 Z M 78.183594 5.210938 L 80.789062 5.210938 L 80.789062 7.816406 L 78.183594 7.816406 Z M 5.210938 7.816406 L 7.816406 7.816406 L 7.816406 10.425781 L 5.210938 10.425781 Z M 20.847656 7.816406 L 23.453125 7.816406 L 23.453125 10.425781 L 20.847656 10.425781 Z M 26.0625 7.816406 L 28.667969 7.816406 L 28.667969 10.425781 L 26.0625 10.425781 Z M 28.667969 7.816406 L 31.273438 7.816406 L 31.273438 10.425781 L 28.667969 10.425781 Z M 33.878906 7.816406 L 36.484375 7.816406 L 36.484375 10.425781 L 33.878906 10.425781 Z M 36.484375 7.816406 L 39.089844 7.816406 L 39.089844 10.425781 L 36.484375 10.425781 Z M 57.332031 7.816406 L 59.9375 7.816406 L 59.9375 10.425781 L 57.332031 10.425781 Z M 62.546875 7.816406 L 65.152344 7.816406 L 65.152344 10.425781 L 62.546875 10.425781 Z M 78.183594 7.816406 L 80.789062 7.816406 L 80.789062 10.425781 L 78.183594 10.425781 Z M 5.210938 10.425781 L 7.816406 10.425781 L 7.816406 13.03125 L 5.210938 13.03125 Z M 10.425781 10.425781 L 13.03125 10.425781 L 13.03125 13.03125 L 10.425781 13.03125 Z M 13.03125 10.425781 L 15.636719 10.425781 L 15.636719 13.03125 L 13.03125 13.03125 Z M 15.636719 10.425781 L 18.242188 10.425781 L 18.242188 13.03125 L 15.636719 13.03125 Z M 20.847656 10.425781 L 23.453125 10.425781 L 23.453125 13.03125 L 20.847656 13.03125 Z M 28.667969 10.425781 L 31.273438 10.425781 L 31.273438 13.03125 L 28.667969 13.03125 Z M 31.273438 10.425781 L 33.878906 10.425781 L 33.878906 13.03125 L 31.273438 13.03125 Z M 33.878906 10.425781 L 36.484375 10.425781 L 36.484375 13.03125 L 33.878906 13.03125 Z M 41.695312 10.425781 L 44.304688 10.425781 L 44.304688 13.03125 L 41.695312 13.03125 Z M 46.910156 10.425781 L 49.515625 10.425781 L 49.515625 13.03125 L 46.910156 13.03125 Z M 54.726562 10.425781 L 57.332031 10.425781 L 57.332031 13.03125 L 54.726562 13.03125 Z M 57.332031 10.425781 L 59.9375 10.425781 L 59.9375 13.03125 L 57.332031 13.03125 Z M 62.546875 10.425781 L 65.152344 10.425781 L 65.152344 13.03125 L 62.546875 13.03125 Z M 67.757812 10.425781 L 70.363281 10.425781 L 70.363281 13.03125 L 67.757812 13.03125 Z M 70.363281 10.425781 L 72.96875 10.425781 L 72.96875 13.03125 L 70.363281 13.03125 Z M 72.96875 10.425781 L 75.574219 10.425781 L 75.574219 13.03125 L 72.96875 13.03125 Z M 78.183594 10.425781 L 80.789062 10.425781 L 80.789062 13.03125 L 78.183594 13.03125 Z M 5.210938 13.03125 L 7.816406 13.03125 L 7.816406 15.636719 L 5.210938 15.636719 Z M 10.425781 13.03125 L 13.03125 13.03125 L 13.03125 15.636719 L 10.425781 15.636719 Z M 13.03125 13.03125 L 15.636719 13.03125 L 15.636719 15.636719 L 13.03125 15.636719 Z M 15.636719 13.03125 L 18.242188 13.03125 L 18.242188 15.636719 L 15.636719 15.636719 Z M 20.847656 13.03125 L 23.453125 13.03125 L 23.453125 15.636719 L 20.847656 15.636719 Z M 26.0625 13.03125 L 28.667969 13.03125 L 28.667969 15.636719 L 26.0625 15.636719 Z M 28.667969 13.03125 L 31.273438 13.03125 L 31.273438 15.636719 L 28.667969 15.636719 Z M 33.878906 13.03125 L 36.484375 13.03125 L 36.484375 15.636719 L 33.878906 15.636719 Z M 49.515625 13.03125 L 52.121094 13.03125 L 52.121094 15.636719 L 49.515625 15.636719 Z M 54.726562 13.03125 L 57.332031 13.03125 L 57.332031 15.636719 L 54.726562 15.636719 Z M 62.546875 13.03125 L 65.152344 13.03125 L 65.152344 15.636719 L 62.546875 15.636719 Z M 67.757812 13.03125 L 70.363281 13.03125 L 70.363281 15.636719 L 67.757812 15.636719 Z M 70.363281 13.03125 L 72.96875 13.03125 L 72.96875 15.636719 L 70.363281 15.636719 Z M 72.96875 13.03125 L 75.574219 13.03125 L 75.574219 15.636719 L 72.96875 15.636719 Z M 78.183594 13.03125 L 80.789062 13.03125 L 80.789062 15.636719 L 78.183594 15.636719 Z M 5.210938 15.636719 L 7.816406 15.636719 L 7.816406 18.242188 L 5.210938 18.242188 Z M 10.425781 15.636719 L 13.03125 15.636719 L 13.03125 18.242188 L 10.425781 18.242188 Z M 13.03125 15.636719 L 15.636719 15.636719 L 15.636719 18.242188 L 13.03125 18.242188 Z M 15.636719 15.636719 L 18.242188 15.636719 L 18.242188 18.242188 L 15.636719 18.242188 Z M 20.847656 15.636719 L 23.453125 15.636719 L 23.453125 18.242188 L 20.847656 18.242188 Z M 31.273438 15.636719 L 33.878906 15.636719 L 33.878906 18.242188 L 31.273438 18.242188 Z M 36.484375 15.636719 L 39.089844 15.636719 L 39.089844 18.242188 L 36.484375 18.242188 Z M 39.089844 15.636719 L 41.695312 15.636719 L 41.695312 18.242188 L 39.089844 18.242188 Z M 41.695312 15.636719 L 44.304688 15.636719 L 44.304688 18.242188 L 41.695312 18.242188 Z M 44.304688 15.636719 L 46.910156 15.636719 L 46.910156 18.242188 L 44.304688 18.242188 Z M 52.121094 15.636719 L 54.726562 15.636719 L 54.726562 18.242188 L 52.121094 18.242188 Z M 54.726562 15.636719 L 57.332031 15.636719 L 57.332031 18.242188 L 54.726562 18.242188 Z M 57.332031 15.636719 L 59.9375 15.636719 L 59.9375 18.242188 L 57.332031 18.242188 Z M 62.546875 15.636719 L 65.152344 15.636719 L 65.152344 18.242188 L 62.546875 18.242188 Z M 67.757812 15.636719 L 70.363281 15.636719 L 70.363281 18.242188 L 67.757812 18.242188 Z M 70.363281 15.636719 L 72.96875 15.636719 L 72.96875 18.242188 L 70.363281 18.242188 Z M 72.96875 15.636719 L 75.574219 15.636719 L 75.574219 18.242188 L 72.96875 18.242188 Z M 78.183594 15.636719 L 80.789062 15.636719 L 80.789062 18.242188 L 78.183594 18.242188 Z M 5.210938 18.242188 L 7.816406 18.242188 L 7.816406 20.847656 L 5.210938 20.847656 Z M 20.847656 18.242188 L 23.453125 18.242188 L 23.453125 20.847656 L 20.847656 20.847656 Z M 26.0625 18.242188 L 28.667969 18.242188 L 28.667969 20.847656 L 26.0625 20.847656 Z M 31.273438 18.242188 L 33.878906 18.242188 L 33.878906 20.847656 L 31.273438 20.847656 Z M 39.089844 18.242188 L 41.695312 18.242188 L 41.695312 20.847656 L 39.089844 20.847656 Z M 41.695312 18.242188 L 44.304688 18.242188 L 44.304688 20.847656 L 41.695312 20.847656 Z M 44.304688 18.242188 L 46.910156 18.242188 L 46.910156 20.847656 L 44.304688 20.847656 Z M 46.910156 18.242188 L 49.515625 18.242188 L 49.515625 20.847656 L 46.910156 20.847656 Z M 62.546875 18.242188 L 65.152344 18.242188 L 65.152344 20.847656 L 62.546875 20.847656 Z M 78.183594 18.242188 L 80.789062 18.242188 L 80.789062 20.847656 L 78.183594 20.847656 Z M 5.210938 20.847656 L 7.816406 20.847656 L 7.816406 23.453125 L 5.210938 23.453125 Z M 7.816406 20.847656 L 10.425781 20.847656 L 10.425781 23.453125 L 7.816406 23.453125 Z M 10.425781 20.847656 L 13.03125 20.847656 L 13.03125 23.453125 L 10.425781 23.453125 Z M 13.03125 20.847656 L 15.636719 20.847656 L 15.636719 23.453125 L 13.03125 23.453125 Z M 15.636719 20.847656 L 18.242188 20.847656 L 18.242188 23.453125 L 15.636719 23.453125 Z M 18.242188 20.847656 L 20.847656 20.847656 L 20.847656 23.453125 L 18.242188 23.453125 Z M 20.847656 20.847656 L 23.453125 20.847656 L 23.453125 23.453125 L 20.847656 23.453125 Z M 26.0625 20.847656 L 28.667969 20.847656 L 28.667969 23.453125 L 26.0625 23.453125 Z M 31.273438 20.847656 L 33.878906 20.847656 L 33.878906 23.453125 L 31.273438 23.453125 Z M 36.484375 20.847656 L 39.089844 20.847656 L 39.089844 23.453125 L 36.484375 23.453125 Z M 41.695312 20.847656 L 44.304688 20.847656 L 44.304688 23.453125 L 41.695312 23.453125 Z M 46.910156 20.847656 L 49.515625 20.847656 L 49.515625 23.453125 L 46.910156 23.453125 Z M 52.121094 20.847656 L 54.726562 20.847656 L 54.726562 23.453125 L 52.121094 23.453125 Z M 57.332031 20.847656 L 59.9375 20.847656 L 59.9375 23.453125 L 57.332031 23.453125 Z M 62.546875 20.847656 L 65.152344 20.847656 L 65.152344 23.453125 L 62.546875 23.453125 Z M 65.152344 20.847656 L 67.757812 20.847656 L 67.757812 23.453125 L 65.152344 23.453125 Z M 67.757812 20.847656 L 70.363281 20.847656 L 70.363281 23.453125 L 67.757812 23.453125 Z M 70.363281 20.847656 L 72.96875 20.847656 L 72.96875 23.453125 L 70.363281 23.453125 Z M 72.96875 20.847656 L 75.574219 20.847656 L 75.574219 23.453125 L 72.96875 23.453125 Z M 75.574219 20.847656 L 78.183594 20.847656 L 78.183594 23.453125 L 75.574219 23.453125 Z M 78.183594 20.847656 L 80.789062 20.847656 L 80.789062 23.453125 L 78.183594 23.453125 Z M 36.484375 23.453125 L 39.089844 23.453125 L 39.089844 26.0625 L 36.484375 26.0625 Z M 39.089844 23.453125 L 41.695312 23.453125 L 41.695312 26.0625 L 39.089844 26.0625 Z M 44.304688 23.453125 L 46.910156 23.453125 L 46.910156 26.0625 L 44.304688 26.0625 Z M 54.726562 23.453125 L 57.332031 23.453125 L 57.332031 26.0625 L 54.726562 26.0625 Z M 5.210938 26.0625 L 7.816406 26.0625 L 7.816406 28.667969 L 5.210938 28.667969 Z M 7.816406 26.0625 L 10.425781 26.0625 L 10.425781 28.667969 L 7.816406 28.667969 Z M 10.425781 26.0625 L 13.03125 26.0625 L 13.03125 28.667969 L 10.425781 28.667969 Z M 13.03125 26.0625 L 15.636719 26.0625 L 15.636719 28.667969 L 13.03125 28.667969 Z M 15.636719 26.0625 L 18.242188 26.0625 L 18.242188 28.667969 L 15.636719 28.667969 Z M 20.847656 26.0625 L 23.453125 26.0625 L 23.453125 28.667969 L 20.847656 28.667969 Z M 23.453125 26.0625 L 26.0625 26.0625 L 26.0625 28.667969 L 23.453125 28.667969 Z M 26.0625 26.0625 L 28.667969 26.0625 L 28.667969 28.667969 L 26.0625 28.667969 Z M 28.667969 26.0625 L 31.273438 26.0625 L 31.273438 28.667969 L 28.667969 28.667969 Z M 31.273438 26.0625 L 33.878906 26.0625 L 33.878906 28.667969 L 31.273438 28.667969 Z M 36.484375 26.0625 L 39.089844 26.0625 L 39.089844 28.667969 L 36.484375 28.667969 Z M 41.695312 26.0625 L 44.304688 26.0625 L 44.304688 28.667969 L 41.695312 28.667969 Z M 46.910156 26.0625 L 49.515625 26.0625 L 49.515625 28.667969 L 46.910156 28.667969 Z M 49.515625 26.0625 L 52.121094 26.0625 L 52.121094 28.667969 L 49.515625 28.667969 Z M 57.332031 26.0625 L 59.9375 26.0625 L 59.9375 28.667969 L 57.332031 28.667969 Z M 59.9375 26.0625 L 62.546875 26.0625 L 62.546875 28.667969 L 59.9375 28.667969 Z M 65.152344 26.0625 L 67.757812 26.0625 L 67.757812 28.667969 L 65.152344 28.667969 Z M 70.363281 26.0625 L 72.96875 26.0625 L 72.96875 28.667969 L 70.363281 28.667969 Z M 75.574219 26.0625 L 78.183594 26.0625 L 78.183594 28.667969 L 75.574219 28.667969 Z M 10.425781 28.667969 L 13.03125 28.667969 L 13.03125 31.273438 L 10.425781 31.273438 Z M 23.453125 28.667969 L 26.0625 28.667969 L 26.0625 31.273438 L 23.453125 31.273438 Z M 26.0625 28.667969 L 28.667969 28.667969 L 28.667969 31.273438 L 26.0625 31.273438 Z M 28.667969 28.667969 L 31.273438 28.667969 L 31.273438 31.273438 L 28.667969 31.273438 Z M 46.910156 28.667969 L 49.515625 28.667969 L 49.515625 31.273438 L 46.910156 31.273438 Z M 49.515625 28.667969 L 52.121094 28.667969 L 52.121094 31.273438 L 49.515625 31.273438 Z M 52.121094 28.667969 L 54.726562 28.667969 L 54.726562 31.273438 L 52.121094 31.273438 Z M 54.726562 28.667969 L 57.332031 28.667969 L 57.332031 31.273438 L 54.726562 31.273438 Z M 57.332031 28.667969 L 59.9375 28.667969 L 59.9375 31.273438 L 57.332031 31.273438 Z M 59.9375 28.667969 L 62.546875 28.667969 L 62.546875 31.273438 L 59.9375 31.273438 Z M 62.546875 28.667969 L 65.152344 28.667969 L 65.152344 31.273438 L 62.546875 31.273438 Z M 65.152344 28.667969 L 67.757812 28.667969 L 67.757812 31.273438 L 65.152344 31.273438 Z M 67.757812 28.667969 L 70.363281 28.667969 L 70.363281 31.273438 L 67.757812 31.273438 Z M 78.183594 28.667969 L 80.789062 28.667969 L 80.789062 31.273438 L 78.183594 31.273438 Z M 10.425781 31.273438 L 13.03125 31.273438 L 13.03125 33.878906 L 10.425781 33.878906 Z M 13.03125 31.273438 L 15.636719 31.273438 L 15.636719 33.878906 L 13.03125 33.878906 Z M 15.636719 31.273438 L 18.242188 31.273438 L 18.242188 33.878906 L 15.636719 33.878906 Z M 20.847656 31.273438 L 23.453125 31.273438 L 23.453125 33.878906 L 20.847656 33.878906 Z M 23.453125 31.273438 L 26.0625 31.273438 L 26.0625 33.878906 L 23.453125 33.878906 Z M 26.0625 31.273438 L 28.667969 31.273438 L 28.667969 33.878906 L 26.0625 33.878906 Z M 28.667969 31.273438 L 31.273438 31.273438 L 31.273438 33.878906 L 28.667969 33.878906 Z M 33.878906 31.273438 L 36.484375 31.273438 L 36.484375 33.878906 L 33.878906 33.878906 Z M 36.484375 31.273438 L 39.089844 31.273438 L 39.089844 33.878906 L 36.484375 33.878906 Z M 44.304688 31.273438 L 46.910156 31.273438 L 46.910156 33.878906 L 44.304688 33.878906 Z M 49.515625 31.273438 L 52.121094 31.273438 L 52.121094 33.878906 L 49.515625 33.878906 Z M 67.757812 31.273438 L 70.363281 31.273438 L 70.363281 33.878906 L 67.757812 33.878906 Z M 7.816406 33.878906 L 10.425781 33.878906 L 10.425781 36.484375 L 7.816406 36.484375 Z M 15.636719 33.878906 L 18.242188 33.878906 L 18.242188 36.484375 L 15.636719 36.484375 Z M 26.0625 33.878906 L 28.667969 33.878906 L 28.667969 36.484375 L 26.0625 36.484375 Z M 28.667969 33.878906 L 31.273438 33.878906 L 31.273438 36.484375 L 28.667969 36.484375 Z M 31.273438 33.878906 L 33.878906 33.878906 L 33.878906 36.484375 L 31.273438 36.484375 Z M 33.878906 33.878906 L 36.484375 33.878906 L 36.484375 36.484375 L 33.878906 36.484375 Z M 41.695312 33.878906 L 44.304688 33.878906 L 44.304688 36.484375 L 41.695312 36.484375 Z M 65.152344 33.878906 L 67.757812 33.878906 L 67.757812 36.484375 L 65.152344 36.484375 Z M 75.574219 33.878906 L 78.183594 33.878906 L 78.183594 36.484375 L 75.574219 36.484375 Z M 7.816406 36.484375 L 10.425781 36.484375 L 10.425781 39.089844 L 7.816406 39.089844 Z M 13.03125 36.484375 L 15.636719 36.484375 L 15.636719 39.089844 L 13.03125 39.089844 Z M 15.636719 36.484375 L 18.242188 36.484375 L 18.242188 39.089844 L 15.636719 39.089844 Z M 18.242188 36.484375 L 20.847656 36.484375 L 20.847656 39.089844 L 18.242188 39.089844 Z M 20.847656 36.484375 L 23.453125 36.484375 L 23.453125 39.089844 L 20.847656 39.089844 Z M 23.453125 36.484375 L 26.0625 36.484375 L 26.0625 39.089844 L 23.453125 39.089844 Z M 28.667969 36.484375 L 31.273438 36.484375 L 31.273438 39.089844 L 28.667969 39.089844 Z M 33.878906 36.484375 L 36.484375 36.484375 L 36.484375 39.089844 L 33.878906 39.089844 Z M 44.304688 36.484375 L 46.910156 36.484375 L 46.910156 39.089844 L 44.304688 39.089844 Z M 46.910156 36.484375 L 49.515625 36.484375 L 49.515625 39.089844 L 46.910156 39.089844 Z M 49.515625 36.484375 L 52.121094 36.484375 L 52.121094 39.089844 L 49.515625 39.089844 Z M 54.726562 36.484375 L 57.332031 36.484375 L 57.332031 39.089844 L 54.726562 39.089844 Z M 59.9375 36.484375 L 62.546875 36.484375 L 62.546875 39.089844 L 59.9375 39.089844 Z M 70.363281 36.484375 L 72.96875 36.484375 L 72.96875 39.089844 L 70.363281 39.089844 Z M 72.96875 36.484375 L 75.574219 36.484375 L 75.574219 39.089844 L 72.96875 39.089844 Z M 7.816406 39.089844 L 10.425781 39.089844 L 10.425781 41.695312 L 7.816406 41.695312 Z M 18.242188 39.089844 L 20.847656 39.089844 L 20.847656 41.695312 L 18.242188 41.695312 Z M 23.453125 39.089844 L 26.0625 39.089844 L 26.0625 41.695312 L 23.453125 41.695312 Z M 26.0625 39.089844 L 28.667969 39.089844 L 28.667969 41.695312 L 26.0625 41.695312 Z M 28.667969 39.089844 L 31.273438 39.089844 L 31.273438 41.695312 L 28.667969 41.695312 Z M 31.273438 39.089844 L 33.878906 39.089844 L 33.878906 41.695312 L 31.273438 41.695312 Z M 36.484375 39.089844 L 39.089844 39.089844 L 39.089844 41.695312 L 36.484375 41.695312 Z M 39.089844 39.089844 L 41.695312 39.089844 L 41.695312 41.695312 L 39.089844 41.695312 Z M 41.695312 39.089844 L 44.304688 39.089844 L 44.304688 41.695312 L 41.695312 41.695312 Z M 46.910156 39.089844 L 49.515625 39.089844 L 49.515625 41.695312 L 46.910156 41.695312 Z M 54.726562 39.089844 L 57.332031 39.089844 L 57.332031 41.695312 L 54.726562 41.695312 Z M 57.332031 39.089844 L 59.9375 39.089844 L 59.9375 41.695312 L 57.332031 41.695312 Z M 59.9375 39.089844 L 62.546875 39.089844 L 62.546875 41.695312 L 59.9375 41.695312 Z M 62.546875 39.089844 L 65.152344 39.089844 L 65.152344 41.695312 L 62.546875 41.695312 Z M 65.152344 39.089844 L 67.757812 39.089844 L 67.757812 41.695312 L 65.152344 41.695312 Z M 67.757812 39.089844 L 70.363281 39.089844 L 70.363281 41.695312 L 67.757812 41.695312 Z M 72.96875 39.089844 L 75.574219 39.089844 L 75.574219 41.695312 L 72.96875 41.695312 Z M 78.183594 39.089844 L 80.789062 39.089844 L 80.789062 41.695312 L 78.183594 41.695312 Z M 5.210938 41.695312 L 7.816406 41.695312 L 7.816406 44.304688 L 5.210938 44.304688 Z M 15.636719 41.695312 L 18.242188 41.695312 L 18.242188 44.304688 L 15.636719 44.304688 Z M 20.847656 41.695312 L 23.453125 41.695312 L 23.453125 44.304688 L 20.847656 44.304688 Z M 26.0625 41.695312 L 28.667969 41.695312 L 28.667969 44.304688 L 26.0625 44.304688 Z M 28.667969 41.695312 L 31.273438 41.695312 L 31.273438 44.304688 L 28.667969 44.304688 Z M 31.273438 41.695312 L 33.878906 41.695312 L 33.878906 44.304688 L 31.273438 44.304688 Z M 39.089844 41.695312 L 41.695312 41.695312 L 41.695312 44.304688 L 39.089844 44.304688 Z M 41.695312 41.695312 L 44.304688 41.695312 L 44.304688 44.304688 L 41.695312 44.304688 Z M 44.304688 41.695312 L 46.910156 41.695312 L 46.910156 44.304688 L 44.304688 44.304688 Z M 46.910156 41.695312 L 49.515625 41.695312 L 49.515625 44.304688 L 46.910156 44.304688 Z M 49.515625 41.695312 L 52.121094 41.695312 L 52.121094 44.304688 L 49.515625 44.304688 Z M 52.121094 41.695312 L 54.726562 41.695312 L 54.726562 44.304688 L 52.121094 44.304688 Z M 57.332031 41.695312 L 59.9375 41.695312 L 59.9375 44.304688 L 57.332031 44.304688 Z M 62.546875 41.695312 L 65.152344 41.695312 L 65.152344 44.304688 L 62.546875 44.304688 Z M 65.152344 41.695312 L 67.757812 41.695312 L 67.757812 44.304688 L 65.152344 44.304688 Z M 72.96875 41.695312 L 75.574219 41.695312 L 75.574219 44.304688 L 72.96875 44.304688 Z M 5.210938 44.304688 L 7.816406 44.304688 L 7.816406 46.910156 L 5.210938 46.910156 Z M 10.425781 44.304688 L 13.03125 44.304688 L 13.03125 46.910156 L 10.425781 46.910156 Z M 13.03125 44.304688 L 15.636719 44.304688 L 15.636719 46.910156 L 13.03125 46.910156 Z M 15.636719 44.304688 L 18.242188 44.304688 L 18.242188 46.910156 L 15.636719 46.910156 Z M 18.242188 44.304688 L 20.847656 44.304688 L 20.847656 46.910156 L 18.242188 46.910156 Z M 28.667969 44.304688 L 31.273438 44.304688 L 31.273438 46.910156 L 28.667969 46.910156 Z M 36.484375 44.304688 L 39.089844 44.304688 L 39.089844 46.910156 L 36.484375 46.910156 Z M 39.089844 44.304688 L 41.695312 44.304688 L 41.695312 46.910156 L 39.089844 46.910156 Z M 44.304688 44.304688 L 46.910156 44.304688 L 46.910156 46.910156 L 44.304688 46.910156 Z M 46.910156 44.304688 L 49.515625 44.304688 L 49.515625 46.910156 L 46.910156 46.910156 Z M 54.726562 44.304688 L 57.332031 44.304688 L 57.332031 46.910156 L 54.726562 46.910156 Z M 59.9375 44.304688 L 62.546875 44.304688 L 62.546875 46.910156 L 59.9375 46.910156 Z M 62.546875 44.304688 L 65.152344 44.304688 L 65.152344 46.910156 L 62.546875 46.910156 Z M 65.152344 44.304688 L 67.757812 44.304688 L 67.757812 46.910156 L 65.152344 46.910156 Z M 67.757812 44.304688 L 70.363281 44.304688 L 70.363281 46.910156 L 67.757812 46.910156 Z M 75.574219 44.304688 L 78.183594 44.304688 L 78.183594 46.910156 L 75.574219 46.910156 Z M 5.210938 46.910156 L 7.816406 46.910156 L 7.816406 49.515625 L 5.210938 49.515625 Z M 7.816406 46.910156 L 10.425781 46.910156 L 10.425781 49.515625 L 7.816406 49.515625 Z M 15.636719 46.910156 L 18.242188 46.910156 L 18.242188 49.515625 L 15.636719 49.515625 Z M 20.847656 46.910156 L 23.453125 46.910156 L 23.453125 49.515625 L 20.847656 49.515625 Z M 28.667969 46.910156 L 31.273438 46.910156 L 31.273438 49.515625 L 28.667969 49.515625 Z M 31.273438 46.910156 L 33.878906 46.910156 L 33.878906 49.515625 L 31.273438 49.515625 Z M 36.484375 46.910156 L 39.089844 46.910156 L 39.089844 49.515625 L 36.484375 49.515625 Z M 41.695312 46.910156 L 44.304688 46.910156 L 44.304688 49.515625 L 41.695312 49.515625 Z M 44.304688 46.910156 L 46.910156 46.910156 L 46.910156 49.515625 L 44.304688 49.515625 Z M 49.515625 46.910156 L 52.121094 46.910156 L 52.121094 49.515625 L 49.515625 49.515625 Z M 52.121094 46.910156 L 54.726562 46.910156 L 54.726562 49.515625 L 52.121094 49.515625 Z M 72.96875 46.910156 L 75.574219 46.910156 L 75.574219 49.515625 L 72.96875 49.515625 Z M 5.210938 49.515625 L 7.816406 49.515625 L 7.816406 52.121094 L 5.210938 52.121094 Z M 15.636719 49.515625 L 18.242188 49.515625 L 18.242188 52.121094 L 15.636719 52.121094 Z M 18.242188 49.515625 L 20.847656 49.515625 L 20.847656 52.121094 L 18.242188 52.121094 Z M 28.667969 49.515625 L 31.273438 49.515625 L 31.273438 52.121094 L 28.667969 52.121094 Z M 46.910156 49.515625 L 49.515625 49.515625 L 49.515625 52.121094 L 46.910156 52.121094 Z M 49.515625 49.515625 L 52.121094 49.515625 L 52.121094 52.121094 L 49.515625 52.121094 Z M 52.121094 49.515625 L 54.726562 49.515625 L 54.726562 52.121094 L 52.121094 52.121094 Z M 54.726562 49.515625 L 57.332031 49.515625 L 57.332031 52.121094 L 54.726562 52.121094 Z M 57.332031 49.515625 L 59.9375 49.515625 L 59.9375 52.121094 L 57.332031 52.121094 Z M 59.9375 49.515625 L 62.546875 49.515625 L 62.546875 52.121094 L 59.9375 52.121094 Z M 62.546875 49.515625 L 65.152344 49.515625 L 65.152344 52.121094 L 62.546875 52.121094 Z M 65.152344 49.515625 L 67.757812 49.515625 L 67.757812 52.121094 L 65.152344 52.121094 Z M 67.757812 49.515625 L 70.363281 49.515625 L 70.363281 52.121094 L 67.757812 52.121094 Z M 70.363281 49.515625 L 72.96875 49.515625 L 72.96875 52.121094 L 70.363281 52.121094 Z M 72.96875 49.515625 L 75.574219 49.515625 L 75.574219 52.121094 L 72.96875 52.121094 Z M 78.183594 49.515625 L 80.789062 49.515625 L 80.789062 52.121094 L 78.183594 52.121094 Z M 5.210938 52.121094 L 7.816406 52.121094 L 7.816406 54.726562 L 5.210938 54.726562 Z M 10.425781 52.121094 L 13.03125 52.121094 L 13.03125 54.726562 L 10.425781 54.726562 Z M 13.03125 52.121094 L 15.636719 52.121094 L 15.636719 54.726562 L 13.03125 54.726562 Z M 18.242188 52.121094 L 20.847656 52.121094 L 20.847656 54.726562 L 18.242188 54.726562 Z M 20.847656 52.121094 L 23.453125 52.121094 L 23.453125 54.726562 L 20.847656 54.726562 Z M 28.667969 52.121094 L 31.273438 52.121094 L 31.273438 54.726562 L 28.667969 54.726562 Z M 31.273438 52.121094 L 33.878906 52.121094 L 33.878906 54.726562 L 31.273438 54.726562 Z M 33.878906 52.121094 L 36.484375 52.121094 L 36.484375 54.726562 L 33.878906 54.726562 Z M 36.484375 52.121094 L 39.089844 52.121094 L 39.089844 54.726562 L 36.484375 54.726562 Z M 44.304688 52.121094 L 46.910156 52.121094 L 46.910156 54.726562 L 44.304688 54.726562 Z M 49.515625 52.121094 L 52.121094 52.121094 L 52.121094 54.726562 L 49.515625 54.726562 Z M 57.332031 52.121094 L 59.9375 52.121094 L 59.9375 54.726562 L 57.332031 54.726562 Z M 59.9375 52.121094 L 62.546875 52.121094 L 62.546875 54.726562 L 59.9375 54.726562 Z M 65.152344 52.121094 L 67.757812 52.121094 L 67.757812 54.726562 L 65.152344 54.726562 Z M 70.363281 52.121094 L 72.96875 52.121094 L 72.96875 54.726562 L 70.363281 54.726562 Z M 72.96875 52.121094 L 75.574219 52.121094 L 75.574219 54.726562 L 72.96875 54.726562 Z M 5.210938 54.726562 L 7.816406 54.726562 L 7.816406 57.332031 L 5.210938 57.332031 Z M 15.636719 54.726562 L 18.242188 54.726562 L 18.242188 57.332031 L 15.636719 57.332031 Z M 23.453125 54.726562 L 26.0625 54.726562 L 26.0625 57.332031 L 23.453125 57.332031 Z M 26.0625 54.726562 L 28.667969 54.726562 L 28.667969 57.332031 L 26.0625 57.332031 Z M 33.878906 54.726562 L 36.484375 54.726562 L 36.484375 57.332031 L 33.878906 57.332031 Z M 41.695312 54.726562 L 44.304688 54.726562 L 44.304688 57.332031 L 41.695312 57.332031 Z M 46.910156 54.726562 L 49.515625 54.726562 L 49.515625 57.332031 L 46.910156 57.332031 Z M 54.726562 54.726562 L 57.332031 54.726562 L 57.332031 57.332031 L 54.726562 57.332031 Z M 57.332031 54.726562 L 59.9375 54.726562 L 59.9375 57.332031 L 57.332031 57.332031 Z M 62.546875 54.726562 L 65.152344 54.726562 L 65.152344 57.332031 L 62.546875 57.332031 Z M 65.152344 54.726562 L 67.757812 54.726562 L 67.757812 57.332031 L 65.152344 57.332031 Z M 75.574219 54.726562 L 78.183594 54.726562 L 78.183594 57.332031 L 75.574219 57.332031 Z M 5.210938 57.332031 L 7.816406 57.332031 L 7.816406 59.9375 L 5.210938 59.9375 Z M 13.03125 57.332031 L 15.636719 57.332031 L 15.636719 59.9375 L 13.03125 59.9375 Z M 15.636719 57.332031 L 18.242188 57.332031 L 18.242188 59.9375 L 15.636719 59.9375 Z M 18.242188 57.332031 L 20.847656 57.332031 L 20.847656 59.9375 L 18.242188 59.9375 Z M 20.847656 57.332031 L 23.453125 57.332031 L 23.453125 59.9375 L 20.847656 59.9375 Z M 23.453125 57.332031 L 26.0625 57.332031 L 26.0625 59.9375 L 23.453125 59.9375 Z M 28.667969 57.332031 L 31.273438 57.332031 L 31.273438 59.9375 L 28.667969 59.9375 Z M 33.878906 57.332031 L 36.484375 57.332031 L 36.484375 59.9375 L 33.878906 59.9375 Z M 44.304688 57.332031 L 46.910156 57.332031 L 46.910156 59.9375 L 44.304688 59.9375 Z M 46.910156 57.332031 L 49.515625 57.332031 L 49.515625 59.9375 L 46.910156 59.9375 Z M 49.515625 57.332031 L 52.121094 57.332031 L 52.121094 59.9375 L 49.515625 59.9375 Z M 54.726562 57.332031 L 57.332031 57.332031 L 57.332031 59.9375 L 54.726562 59.9375 Z M 57.332031 57.332031 L 59.9375 57.332031 L 59.9375 59.9375 L 57.332031 59.9375 Z M 59.9375 57.332031 L 62.546875 57.332031 L 62.546875 59.9375 L 59.9375 59.9375 Z M 62.546875 57.332031 L 65.152344 57.332031 L 65.152344 59.9375 L 62.546875 59.9375 Z M 65.152344 57.332031 L 67.757812 57.332031 L 67.757812 59.9375 L 65.152344 59.9375 Z M 67.757812 57.332031 L 70.363281 57.332031 L 70.363281 59.9375 L 67.757812 59.9375 Z M 72.96875 57.332031 L 75.574219 57.332031 L 75.574219 59.9375 L 72.96875 59.9375 Z M 75.574219 57.332031 L 78.183594 57.332031 L 78.183594 59.9375 L 75.574219 59.9375 Z M 78.183594 57.332031 L 80.789062 57.332031 L 80.789062 59.9375 L 78.183594 59.9375 Z M 26.0625 59.9375 L 28.667969 59.9375 L 28.667969 62.546875 L 26.0625 62.546875 Z M 28.667969 59.9375 L 31.273438 59.9375 L 31.273438 62.546875 L 28.667969 62.546875 Z M 36.484375 59.9375 L 39.089844 59.9375 L 39.089844 62.546875 L 36.484375 62.546875 Z M 39.089844 59.9375 L 41.695312 59.9375 L 41.695312 62.546875 L 39.089844 62.546875 Z M 41.695312 59.9375 L 44.304688 59.9375 L 44.304688 62.546875 L 41.695312 62.546875 Z M 46.910156 59.9375 L 49.515625 59.9375 L 49.515625 62.546875 L 46.910156 62.546875 Z M 57.332031 59.9375 L 59.9375 59.9375 L 59.9375 62.546875 L 57.332031 62.546875 Z M 67.757812 59.9375 L 70.363281 59.9375 L 70.363281 62.546875 L 67.757812 62.546875 Z M 70.363281 59.9375 L 72.96875 59.9375 L 72.96875 62.546875 L 70.363281 62.546875 Z M 72.96875 59.9375 L 75.574219 59.9375 L 75.574219 62.546875 L 72.96875 62.546875 Z M 75.574219 59.9375 L 78.183594 59.9375 L 78.183594 62.546875 L 75.574219 62.546875 Z M 78.183594 59.9375 L 80.789062 59.9375 L 80.789062 62.546875 L 78.183594 62.546875 Z M 5.210938 62.546875 L 7.816406 62.546875 L 7.816406 65.152344 L 5.210938 65.152344 Z M 7.816406 62.546875 L 10.425781 62.546875 L 10.425781 65.152344 L 7.816406 65.152344 Z M 10.425781 62.546875 L 13.03125 62.546875 L 13.03125 65.152344 L 10.425781 65.152344 Z M 13.03125 62.546875 L 15.636719 62.546875 L 15.636719 65.152344 L 13.03125 65.152344 Z M 15.636719 62.546875 L 18.242188 62.546875 L 18.242188 65.152344 L 15.636719 65.152344 Z M 18.242188 62.546875 L 20.847656 62.546875 L 20.847656 65.152344 L 18.242188 65.152344 Z M 20.847656 62.546875 L 23.453125 62.546875 L 23.453125 65.152344 L 20.847656 65.152344 Z M 26.0625 62.546875 L 28.667969 62.546875 L 28.667969 65.152344 L 26.0625 65.152344 Z M 39.089844 62.546875 L 41.695312 62.546875 L 41.695312 65.152344 L 39.089844 65.152344 Z M 41.695312 62.546875 L 44.304688 62.546875 L 44.304688 65.152344 L 41.695312 65.152344 Z M 44.304688 62.546875 L 46.910156 62.546875 L 46.910156 65.152344 L 44.304688 65.152344 Z M 46.910156 62.546875 L 49.515625 62.546875 L 49.515625 65.152344 L 46.910156 65.152344 Z M 49.515625 62.546875 L 52.121094 62.546875 L 52.121094 65.152344 L 49.515625 65.152344 Z M 52.121094 62.546875 L 54.726562 62.546875 L 54.726562 65.152344 L 52.121094 65.152344 Z M 54.726562 62.546875 L 57.332031 62.546875 L 57.332031 65.152344 L 54.726562 65.152344 Z M 57.332031 62.546875 L 59.9375 62.546875 L 59.9375 65.152344 L 57.332031 65.152344 Z M 62.546875 62.546875 L 65.152344 62.546875 L 65.152344 65.152344 L 62.546875 65.152344 Z M 67.757812 62.546875 L 70.363281 62.546875 L 70.363281 65.152344 L 67.757812 65.152344 Z M 70.363281 62.546875 L 72.96875 62.546875 L 72.96875 65.152344 L 70.363281 65.152344 Z M 72.96875 62.546875 L 75.574219 62.546875 L 75.574219 65.152344 L 72.96875 65.152344 Z M 5.210938 65.152344 L 7.816406 65.152344 L 7.816406 67.757812 L 5.210938 67.757812 Z M 20.847656 65.152344 L 23.453125 65.152344 L 23.453125 67.757812 L 20.847656 67.757812 Z M 28.667969 65.152344 L 31.273438 65.152344 L 31.273438 67.757812 L 28.667969 67.757812 Z M 31.273438 65.152344 L 33.878906 65.152344 L 33.878906 67.757812 L 31.273438 67.757812 Z M 36.484375 65.152344 L 39.089844 65.152344 L 39.089844 67.757812 L 36.484375 67.757812 Z M 39.089844 65.152344 L 41.695312 65.152344 L 41.695312 67.757812 L 39.089844 67.757812 Z M 46.910156 65.152344 L 49.515625 65.152344 L 49.515625 67.757812 L 46.910156 67.757812 Z M 52.121094 65.152344 L 54.726562 65.152344 L 54.726562 67.757812 L 52.121094 67.757812 Z M 57.332031 65.152344 L 59.9375 65.152344 L 59.9375 67.757812 L 57.332031 67.757812 Z M 67.757812 65.152344 L 70.363281 65.152344 L 70.363281 67.757812 L 67.757812 67.757812 Z M 70.363281 65.152344 L 72.96875 65.152344 L 72.96875 67.757812 L 70.363281 67.757812 Z M 78.183594 65.152344 L 80.789062 65.152344 L 80.789062 67.757812 L 78.183594 67.757812 Z M 5.210938 67.757812 L 7.816406 67.757812 L 7.816406 70.363281 L 5.210938 70.363281 Z M 10.425781 67.757812 L 13.03125 67.757812 L 13.03125 70.363281 L 10.425781 70.363281 Z M 13.03125 67.757812 L 15.636719 67.757812 L 15.636719 70.363281 L 13.03125 70.363281 Z M 15.636719 67.757812 L 18.242188 67.757812 L 18.242188 70.363281 L 15.636719 70.363281 Z M 20.847656 67.757812 L 23.453125 67.757812 L 23.453125 70.363281 L 20.847656 70.363281 Z M 26.0625 67.757812 L 28.667969 67.757812 L 28.667969 70.363281 L 26.0625 70.363281 Z M 36.484375 67.757812 L 39.089844 67.757812 L 39.089844 70.363281 L 36.484375 70.363281 Z M 41.695312 67.757812 L 44.304688 67.757812 L 44.304688 70.363281 L 41.695312 70.363281 Z M 49.515625 67.757812 L 52.121094 67.757812 L 52.121094 70.363281 L 49.515625 70.363281 Z M 57.332031 67.757812 L 59.9375 67.757812 L 59.9375 70.363281 L 57.332031 70.363281 Z M 59.9375 67.757812 L 62.546875 67.757812 L 62.546875 70.363281 L 59.9375 70.363281 Z M 62.546875 67.757812 L 65.152344 67.757812 L 65.152344 70.363281 L 62.546875 70.363281 Z M 65.152344 67.757812 L 67.757812 67.757812 L 67.757812 70.363281 L 65.152344 70.363281 Z M 67.757812 67.757812 L 70.363281 67.757812 L 70.363281 70.363281 L 67.757812 70.363281 Z M 72.96875 67.757812 L 75.574219 67.757812 L 75.574219 70.363281 L 72.96875 70.363281 Z M 75.574219 67.757812 L 78.183594 67.757812 L 78.183594 70.363281 L 75.574219 70.363281 Z M 5.210938 70.363281 L 7.816406 70.363281 L 7.816406 72.96875 L 5.210938 72.96875 Z M 10.425781 70.363281 L 13.03125 70.363281 L 13.03125 72.96875 L 10.425781 72.96875 Z M 13.03125 70.363281 L 15.636719 70.363281 L 15.636719 72.96875 L 13.03125 72.96875 Z M 15.636719 70.363281 L 18.242188 70.363281 L 18.242188 72.96875 L 15.636719 72.96875 Z M 20.847656 70.363281 L 23.453125 70.363281 L 23.453125 72.96875 L 20.847656 72.96875 Z M 26.0625 70.363281 L 28.667969 70.363281 L 28.667969 72.96875 L 26.0625 72.96875 Z M 28.667969 70.363281 L 31.273438 70.363281 L 31.273438 72.96875 L 28.667969 72.96875 Z M 31.273438 70.363281 L 33.878906 70.363281 L 33.878906 72.96875 L 31.273438 72.96875 Z M 46.910156 70.363281 L 49.515625 70.363281 L 49.515625 72.96875 L 46.910156 72.96875 Z M 52.121094 70.363281 L 54.726562 70.363281 L 54.726562 72.96875 L 52.121094 72.96875 Z M 54.726562 70.363281 L 57.332031 70.363281 L 57.332031 72.96875 L 54.726562 72.96875 Z M 70.363281 70.363281 L 72.96875 70.363281 L 72.96875 72.96875 L 70.363281 72.96875 Z M 75.574219 70.363281 L 78.183594 70.363281 L 78.183594 72.96875 L 75.574219 72.96875 Z M 78.183594 70.363281 L 80.789062 70.363281 L 80.789062 72.96875 L 78.183594 72.96875 Z M 5.210938 72.96875 L 7.816406 72.96875 L 7.816406 75.574219 L 5.210938 75.574219 Z M 10.425781 72.96875 L 13.03125 72.96875 L 13.03125 75.574219 L 10.425781 75.574219 Z M 13.03125 72.96875 L 15.636719 72.96875 L 15.636719 75.574219 L 13.03125 75.574219 Z M 15.636719 72.96875 L 18.242188 72.96875 L 18.242188 75.574219 L 15.636719 75.574219 Z M 20.847656 72.96875 L 23.453125 72.96875 L 23.453125 75.574219 L 20.847656 75.574219 Z M 26.0625 72.96875 L 28.667969 72.96875 L 28.667969 75.574219 L 26.0625 75.574219 Z M 28.667969 72.96875 L 31.273438 72.96875 L 31.273438 75.574219 L 28.667969 75.574219 Z M 33.878906 72.96875 L 36.484375 72.96875 L 36.484375 75.574219 L 33.878906 75.574219 Z M 36.484375 72.96875 L 39.089844 72.96875 L 39.089844 75.574219 L 36.484375 75.574219 Z M 44.304688 72.96875 L 46.910156 72.96875 L 46.910156 75.574219 L 44.304688 75.574219 Z M 46.910156 72.96875 L 49.515625 72.96875 L 49.515625 75.574219 L 46.910156 75.574219 Z M 54.726562 72.96875 L 57.332031 72.96875 L 57.332031 75.574219 L 54.726562 75.574219 Z M 57.332031 72.96875 L 59.9375 72.96875 L 59.9375 75.574219 L 57.332031 75.574219 Z M 59.9375 72.96875 L 62.546875 72.96875 L 62.546875 75.574219 L 59.9375 75.574219 Z M 62.546875 72.96875 L 65.152344 72.96875 L 65.152344 75.574219 L 62.546875 75.574219 Z M 65.152344 72.96875 L 67.757812 72.96875 L 67.757812 75.574219 L 65.152344 75.574219 Z M 67.757812 72.96875 L 70.363281 72.96875 L 70.363281 75.574219 L 67.757812 75.574219 Z M 70.363281 72.96875 L 72.96875 72.96875 L 72.96875 75.574219 L 70.363281 75.574219 Z M 72.96875 72.96875 L 75.574219 72.96875 L 75.574219 75.574219 L 72.96875 75.574219 Z M 75.574219 72.96875 L 78.183594 72.96875 L 78.183594 75.574219 L 75.574219 75.574219 Z M 5.210938 75.574219 L 7.816406 75.574219 L 7.816406 78.183594 L 5.210938 78.183594 Z M 20.847656 75.574219 L 23.453125 75.574219 L 23.453125 78.183594 L 20.847656 78.183594 Z M 26.0625 75.574219 L 28.667969 75.574219 L 28.667969 78.183594 L 26.0625 78.183594 Z M 31.273438 75.574219 L 33.878906 75.574219 L 33.878906 78.183594 L 31.273438 78.183594 Z M 33.878906 75.574219 L 36.484375 75.574219 L 36.484375 78.183594 L 33.878906 78.183594 Z M 41.695312 75.574219 L 44.304688 75.574219 L 44.304688 78.183594 L 41.695312 78.183594 Z M 57.332031 75.574219 L 59.9375 75.574219 L 59.9375 78.183594 L 57.332031 78.183594 Z M 62.546875 75.574219 L 65.152344 75.574219 L 65.152344 78.183594 L 62.546875 78.183594 Z M 65.152344 75.574219 L 67.757812 75.574219 L 67.757812 78.183594 L 65.152344 78.183594 Z M 70.363281 75.574219 L 72.96875 75.574219 L 72.96875 78.183594 L 70.363281 78.183594 Z M 75.574219 75.574219 L 78.183594 75.574219 L 78.183594 78.183594 L 75.574219 78.183594 Z M 5.210938 78.183594 L 7.816406 78.183594 L 7.816406 80.789062 L 5.210938 80.789062 Z M 7.816406 78.183594 L 10.425781 78.183594 L 10.425781 80.789062 L 7.816406 80.789062 Z M 10.425781 78.183594 L 13.03125 78.183594 L 13.03125 80.789062 L 10.425781 80.789062 Z M 13.03125 78.183594 L 15.636719 78.183594 L 15.636719 80.789062 L 13.03125 80.789062 Z M 15.636719 78.183594 L 18.242188 78.183594 L 18.242188 80.789062 L 15.636719 80.789062 Z M 18.242188 78.183594 L 20.847656 78.183594 L 20.847656 80.789062 L 18.242188 80.789062 Z M 20.847656 78.183594 L 23.453125 78.183594 L 23.453125 80.789062 L 20.847656 80.789062 Z M 26.0625 78.183594 L 28.667969 78.183594 L 28.667969 80.789062 L 26.0625 80.789062 Z M 28.667969 78.183594 L 31.273438 78.183594 L 31.273438 80.789062 L 28.667969 80.789062 Z M 33.878906 78.183594 L 36.484375 78.183594 L 36.484375 80.789062 L 33.878906 80.789062 Z M 44.304688 78.183594 L 46.910156 78.183594 L 46.910156 80.789062 L 44.304688 80.789062 Z M 49.515625 78.183594 L 52.121094 78.183594 L 52.121094 80.789062 L 49.515625 80.789062 Z M 54.726562 78.183594 L 57.332031 78.183594 L 57.332031 80.789062 L 54.726562 80.789062 Z M 62.546875 78.183594 L 65.152344 78.183594 L 65.152344 80.789062 L 62.546875 80.789062 Z M 65.152344 78.183594 L 67.757812 78.183594 L 67.757812 80.789062 L 65.152344 80.789062 Z M 72.96875 78.183594 L 75.574219 78.183594 L 75.574219 80.789062 L 72.96875 80.789062 Z M 72.96875 78.183594 "/>
</g>
</svg>
