<svg width="16" height="16" viewBox="0 0 16 16" fill="none" xmlns="http://www.w3.org/2000/svg">
<g clip-path="url(#clip0_2914_152158)">
<path d="M20 0H0V20H20V0Z" fill="#202124"/>
<path d="M6.27961 15.9626C5.81463 15.8593 5.47277 15.5196 5.3842 15.0729C5.36856 14.9941 5.31005 14.6126 5.25417 14.2251L5.15256 13.5206L5.01835 13.4531C4.94454 13.416 4.80062 13.3352 4.69853 13.2735L4.51291 13.1615L3.80008 13.4411C3.40803 13.5949 3.02762 13.7368 2.95474 13.7564C2.79146 13.8005 2.51884 13.8036 2.36009 13.7632C2.09146 13.6949 1.83032 13.5148 1.68502 13.2977C1.50552 13.0294 0.128833 10.6702 0.0940945 10.5714C-0.0368816 10.1988 0.0173435 9.8195 0.245942 9.50937C0.324257 9.40312 0.438705 9.30776 1.00542 8.87655L1.67268 8.36884L1.67219 7.99523L1.67171 7.62162L1.04137 7.13995C0.331856 6.59779 0.313019 6.58166 0.204647 6.42331C0.0222376 6.1568 -0.0326283 5.79421 0.0636003 5.49118C0.0973592 5.38487 0.298467 5.0296 0.899921 4.01375C1.63685 2.76909 1.70174 2.66619 1.83516 2.53077C2.05006 2.31266 2.27293 2.21227 2.58068 2.19497C2.70896 2.18776 2.79877 2.19339 2.88654 2.21415C2.95488 2.23032 3.35018 2.37733 3.765 2.54084L4.5192 2.83813L4.67881 2.74241C4.76659 2.68977 4.90908 2.60848 4.99545 2.56178L5.15248 2.47688L5.26462 1.69725C5.32629 1.26845 5.39271 0.866007 5.41221 0.802925C5.48751 0.559349 5.66495 0.334891 5.89408 0.193359C6.20172 0.00333694 6.16356 0.00649792 8.06694 0.013354C9.69663 0.0192242 9.70171 0.0193636 9.8259 0.0616002C10.177 0.181009 10.4762 0.474303 10.5717 0.792573C10.5924 0.861349 10.6567 1.2445 10.7148 1.64402C10.7728 2.04355 10.8251 2.39372 10.8309 2.42218C10.8394 2.46369 10.8743 2.49174 11.0073 2.56396C11.0986 2.61348 11.241 2.69578 11.3237 2.74685L11.4741 2.83969L12.2317 2.54533C12.6484 2.38343 13.0297 2.24129 13.079 2.22946C13.2079 2.19855 13.4995 2.20296 13.6365 2.23789C13.8454 2.29116 14.0273 2.39427 14.1745 2.54288C14.2961 2.66571 14.3784 2.79665 15.079 3.9824C15.503 4.69983 15.8661 5.32363 15.886 5.36864C16.0638 5.77065 15.9893 6.25458 15.7018 6.56513C15.6445 6.62706 15.3142 6.89414 14.9678 7.15865L14.338 7.63957L14.3422 8.01457L14.3464 8.38957L14.9677 8.86325C15.3094 9.12378 15.6333 9.38504 15.6876 9.44385C15.8028 9.56876 15.9103 9.76358 15.9516 9.9222C16.0102 10.1472 15.9807 10.4679 15.8833 10.6625C15.8611 10.7069 15.4934 11.335 15.066 12.0583C14.2235 13.4844 14.2064 13.509 13.9507 13.6636C13.7134 13.8071 13.4027 13.8612 13.1389 13.805C13.0635 13.7889 12.6602 13.6428 12.2427 13.4803L11.4836 13.1849L11.3188 13.285C11.2282 13.34 11.0874 13.4215 11.0058 13.4661C10.9064 13.5205 10.8546 13.5608 10.8485 13.5884C10.8435 13.6111 10.7918 13.9609 10.7336 14.3656C10.6753 14.7704 10.6101 15.1549 10.5886 15.2199C10.5362 15.3788 10.4299 15.5379 10.29 15.6671C10.1471 15.7989 10.0463 15.8589 9.8521 15.9276L9.70127 15.9809L8.04775 15.9845C6.72972 15.9873 6.37103 15.9829 6.27961 15.9626ZM9.21112 13.0801C9.28827 12.5728 9.35271 12.1565 9.35433 12.1548C9.35595 12.1532 9.48709 12.1002 9.64576 12.0371C10.1296 11.8445 10.3856 11.7038 10.8674 11.3656C11.0507 11.237 11.1268 11.1939 11.1572 11.2013C11.1799 11.2069 11.5918 11.3623 12.0725 11.5467C12.5532 11.7311 12.9487 11.8795 12.9514 11.8765C12.9746 11.8507 14.0145 10.1185 14.0093 10.1144C14.0055 10.1115 13.6712 9.8655 13.2665 9.56774C12.8617 9.26998 12.5143 9.01127 12.4945 8.99283C12.4593 8.96001 12.4595 8.952 12.5029 8.61826C12.5613 8.16975 12.5613 7.83037 12.5029 7.38185C12.4595 7.04811 12.4593 7.04011 12.4945 7.00729C12.5143 6.98884 12.8617 6.73013 13.2665 6.43237C13.6712 6.13461 14.0055 5.88859 14.0093 5.88565C14.0169 5.87977 12.9868 4.18149 12.9529 4.14405C12.9366 4.12609 12.7269 4.1991 12.0334 4.46406C11.5393 4.65286 11.1256 4.80741 11.1141 4.80752C11.1025 4.80761 11.019 4.75181 10.9284 4.6835C10.5165 4.3728 10.1614 4.17248 9.67268 3.97513C9.4992 3.90507 9.35594 3.84654 9.35433 3.84505C9.35271 3.84357 9.28827 3.4273 9.21112 2.92001L9.07085 1.99767H8.0065H6.94214L6.93118 2.05024C6.92515 2.07915 6.86422 2.4727 6.79579 2.92479C6.72736 3.37688 6.66658 3.76968 6.66072 3.79768C6.65126 3.84285 6.62491 3.85785 6.4266 3.93088C5.98729 4.09269 5.59394 4.31238 4.99846 4.72852L4.88337 4.80894L3.97593 4.46474C3.27255 4.19795 3.06371 4.12581 3.04726 4.14394C3.03102 4.16184 2.02514 5.8036 1.99457 5.86212C1.98978 5.87129 3.38046 6.91448 3.52349 7.00901C3.53574 7.0171 3.52655 7.14574 3.49754 7.37221C3.43745 7.84134 3.43738 8.191 3.49731 8.62721C3.54206 8.95295 3.54219 8.95859 3.50617 8.99221C3.48604 9.011 3.13839 9.26998 2.73361 9.56774C2.32883 9.8655 1.99456 10.1115 1.99078 10.1144C1.98559 10.1184 3.0248 11.8491 3.04892 11.8766C3.05161 11.8797 3.4605 11.727 3.95757 11.5373C4.45464 11.3476 4.86958 11.1924 4.87966 11.1924C4.88974 11.1924 4.9902 11.2605 5.1029 11.3437C5.5432 11.6687 5.86055 11.8441 6.37041 12.0441C6.52549 12.1049 6.65237 12.1613 6.65237 12.1693C6.65237 12.1906 6.918 13.8873 6.93112 13.9499L6.94214 14.0024H8.0065H9.07085L9.21112 13.0801Z" fill="#386AFF"/>
<path d="M7.59846 10.458C7.37952 10.4156 7.2257 10.371 7.05402 10.3001C6.40622 10.0324 5.88953 9.48956 5.65134 8.82643C5.46974 8.32084 5.46974 7.67911 5.65134 7.17353C5.77619 6.82595 5.97131 6.52004 6.2407 6.24955C6.9754 5.51184 8.04329 5.30934 9.00746 5.72489C9.60188 5.98109 10.1219 6.54288 10.3484 7.17353C10.53 7.67911 10.53 8.32084 10.3484 8.82643C10.2236 9.17401 10.0285 9.47991 9.75909 9.7504C9.42966 10.0812 9.0591 10.2934 8.60204 10.413C8.40801 10.4638 8.34408 10.4713 8.05724 10.4772C7.83646 10.4818 7.68937 10.4756 7.59846 10.458Z" fill="#386AFF"/>
</g>
<defs>
<clipPath id="clip0_2914_152158">
<rect width="16" height="16" fill="white"/>
</clipPath>
</defs>
</svg>
