<svg xmlns="http://www.w3.org/2000/svg" width="16" height="16" viewBox="0 0 16 16">
  <rect x="0" y="0" width="20" height="20" style="fill:rgb(16.862745%,18.431373%,21.568627%);fill-opacity:1;stroke:none;"/>
  <path fill="#8AB4F8" fill-rule="evenodd" d="M11.4780926,18 L8.51899056,18 C7.92717015,18 7.43132061,17.5783309 7.35934245,17.0082967 L7.14340797,15.5324549 C6.9274735,15.4231332 6.7195366,15.3060029 6.51159969,15.1732552 L5.07203652,15.7354807 C4.51220639,15.9385066 3.89639326,15.7120547 3.62447577,15.2279161 L2.16091987,12.7525622 C1.88100481,12.2371889 2.00096841,11.6281113 2.44883251,11.284529 L3.67246121,10.3552953 C3.66446363,10.238165 3.65646606,10.1210347 3.65646606,9.99609566 C3.65646606,9.87896535 3.66446363,9.75402635 3.67246121,9.63689605 L2.45683008,8.70766227 C1.98497326,8.35627135 1.86500967,7.72376769 2.16091987,7.23962909 L3.64047092,4.74865788 C3.9123884,4.26451928 4.52820154,4.04587604 5.07203652,4.25671059 L6.51959727,4.82674475 C6.72753417,4.69399707 6.93547107,4.57686676 7.14340797,4.46754514 L7.35934245,2.9760859 C7.43132061,2.42947779 7.92717015,2 8.51099299,2 L11.4700951,2 C12.0619155,2 12.557765,2.42166911 12.6297432,2.99170327 L12.8456777,4.46754514 C13.0616121,4.57686676 13.269549,4.69399707 13.4774859,4.82674475 L14.9170491,4.26451928 C15.4848768,4.06149341 16.10069,4.28794534 16.3726074,4.77208394 L17.8441609,7.25524646 C18.1320735,7.77061981 18.0041124,8.37969741 17.5562483,8.72327965 L16.3406171,9.65251342 C16.3486147,9.76964373 16.3566123,9.88677404 16.3566123,10.011713 C16.3566123,10.136652 16.3486147,10.2537823 16.3406171,10.3709126 L17.5562483,11.3001464 C18.0041124,11.6515373 18.1320735,12.2606149 17.8521585,12.7525622 L16.3646099,15.2669595 C16.0926924,15.7510981 15.4768792,15.9697413 14.9250467,15.7589068 L13.4854835,15.1966813 C13.2775466,15.329429 13.0696097,15.4465593 12.8616728,15.5558809 L12.6457383,17.0473402 C12.5657626,17.5783309 12.0699131,18 11.4780926,18 Z M8.94703255,16 L11.0606254,16 L11.3439694,14.1454545 L11.7498405,13.9854545 C12.08679,13.8545455 12.4237396,13.6654545 12.7760051,13.4181818 L13.1206126,13.1709091 L14.9432036,13.8690909 L16,12.1236364 L14.4454371,10.9745455 L14.4990428,10.5672727 C14.5220166,10.3781818 14.5449904,10.1963636 14.5449904,10 C14.5449904,9.80363636 14.5220166,9.61454545 14.4990428,9.43272727 L14.4454371,9.02545455 L16,7.87636364 L14.9355456,6.13090909 L13.1052967,6.82909091 L12.7606892,6.57454545 C12.4390555,6.34181818 12.094448,6.15272727 11.7421825,6.01454545 L11.3439694,5.85454545 L11.0606254,4 L8.94703255,4 L8.66368858,5.85454545 L8.25781749,6.00727273 C7.9208679,6.14545455 7.58391832,6.32727273 7.23165284,6.58181818 L6.88704531,6.82181818 L5.06445437,6.13090909 L4,7.86909091 L5.55456286,9.01818182 L5.50095724,9.42545455 C5.47798341,9.61454545 5.45500957,9.81090909 5.45500957,10 C5.45500957,10.1890909 5.47032546,10.3854545 5.50095724,10.5672727 L5.55456286,10.9745455 L4,12.1236364 L5.05679643,13.8690909 L6.88704531,13.1709091 L7.23165284,13.4254545 C7.56094448,13.6654545 7.89023612,13.8472727 8.25015954,13.9854545 L8.65603063,14.1454545 L8.94703255,16 Z M10,12.5 C11.3807119,12.5 12.5,11.3807119 12.5,10 C12.5,8.61928813 11.3807119,7.5 10,7.5 C8.61928813,7.5 7.5,8.61928813 7.5,10 C7.5,11.3807119 8.61928813,12.5 10,12.5 Z" transform="translate(-2 -2)"/>
</svg>
