<svg width="16" height="16" viewBox="0 0 16 16" fill="none" xmlns="http://www.w3.org/2000/svg">
<g clip-path="url(#clip0_2914_152153)">
<path d="M20 0H0V20H20V0Z" fill="#2B2F37"/>
<path d="M6.26038 15.9594C5.82106 15.8655 5.47088 15.5113 5.38415 15.0729C5.36854 14.9941 5.30985 14.6125 5.25372 14.2249L5.15166 13.5202L5.01785 13.4529C4.94425 13.4159 4.80051 13.3352 4.69842 13.2735L4.51279 13.1615L3.79997 13.4411C3.40791 13.5949 3.02751 13.7368 2.95462 13.7564C2.79135 13.8005 2.51873 13.8036 2.35998 13.7632C2.10691 13.6989 1.83457 13.5179 1.70338 13.3268C1.65221 13.2522 0.286798 10.9504 0.170858 10.7432C0.0700617 10.5631 0.0291222 10.4005 0.0288489 10.1793C0.0285384 9.92793 0.0799525 9.7564 0.217023 9.55147C0.322778 9.39335 0.318834 9.39667 1.1459 8.76884L1.67061 8.37053L1.67125 7.99627L1.6719 7.62201L1.07964 7.17014C0.753899 6.92161 0.438725 6.67569 0.379256 6.62364C0.147205 6.42058 0.019043 6.13145 0.019043 5.81102C0.019043 5.49985 0.0179082 5.50216 0.900028 4.01678C1.33544 3.28361 1.72151 2.64729 1.75795 2.60274C1.89042 2.44084 2.06737 2.32166 2.29291 2.24243C2.44184 2.19011 2.72721 2.1765 2.88657 2.21411C2.95499 2.23026 3.35044 2.37718 3.76535 2.5406L4.51972 2.83774L4.67901 2.74221C4.76662 2.68967 4.90886 2.60854 4.99509 2.56191L5.15187 2.47714L5.26425 1.69738C5.32606 1.26851 5.39237 0.865999 5.4116 0.802917C5.45484 0.66107 5.55844 0.48563 5.66418 0.37519C5.78071 0.253472 5.99431 0.119354 6.15688 0.0658301L6.29861 0.019165H7.99037H9.68213L9.81594 0.0615625C10.1704 0.173857 10.47 0.461254 10.5699 0.784701C10.59 0.849795 10.6546 1.23321 10.7135 1.63674C10.7724 2.04026 10.8252 2.39362 10.8309 2.42197C10.839 2.46257 10.8724 2.49052 10.9881 2.55356C11.0689 2.59758 11.2124 2.67958 11.3071 2.73578L11.4793 2.83796L12.2118 2.55177C12.6147 2.39436 12.9943 2.25261 13.0555 2.23676C13.1996 2.19941 13.4945 2.19978 13.6399 2.23747C13.8452 2.29071 14.0281 2.39523 14.1744 2.54288C14.296 2.6657 14.3783 2.79664 15.0789 3.9824C15.5028 4.69982 15.866 5.32363 15.8859 5.36864C16.0638 5.77084 15.9892 6.25457 15.7014 6.56548C15.6439 6.6276 15.3136 6.89502 14.9674 7.15976L14.3379 7.64109L14.3421 8.01485L14.3463 8.38862L14.9667 8.86342C15.3079 9.12455 15.6161 9.36615 15.6515 9.40031C15.7432 9.48859 15.8727 9.69129 15.9234 9.82562C15.9536 9.90574 15.9694 9.99799 15.976 10.1317C15.9866 10.3484 15.9645 10.4836 15.8932 10.638C15.8665 10.6959 15.4947 11.3353 15.0668 12.059C14.2234 13.4856 14.2024 13.5159 13.9524 13.6636C13.708 13.808 13.4021 13.8611 13.1381 13.8048C13.0623 13.7887 12.6589 13.6427 12.2415 13.4804L11.4827 13.1853L11.3184 13.2852C11.2279 13.3401 11.0873 13.4215 11.0057 13.4661C10.9062 13.5206 10.8546 13.5607 10.8485 13.5884C10.8436 13.6111 10.7919 13.9609 10.7336 14.3656C10.6753 14.7704 10.6101 15.1549 10.5886 15.2199C10.536 15.3789 10.4298 15.5379 10.2899 15.6671C10.147 15.7989 10.0462 15.8589 9.85199 15.9276L9.70116 15.9809L8.04764 15.9844C6.64294 15.9874 6.37406 15.9837 6.26038 15.9594ZM9.21086 13.0801C9.288 12.5728 9.35248 12.1564 9.35414 12.1547C9.3558 12.153 9.49049 12.0986 9.65345 12.0338C10.1231 11.8471 10.53 11.6183 10.9667 11.2953C11.0433 11.2387 11.1158 11.1924 11.1279 11.1924C11.14 11.1924 11.5542 11.3474 12.0483 11.5369C12.5425 11.7264 12.9489 11.8791 12.9514 11.8763C12.9746 11.8498 14.0141 10.1182 14.009 10.1145C13.6467 9.85089 12.5198 9.01626 12.4944 8.9927C12.4592 8.96 12.4594 8.95198 12.5028 8.61826C12.5612 8.16974 12.5612 7.83036 12.5028 7.38184C12.4593 7.04811 12.4592 7.0401 12.4944 7.00728C12.5142 6.98884 12.8616 6.73012 13.2664 6.43236C13.6711 6.13461 14.0053 5.88869 14.009 5.88587C14.0165 5.88013 12.9856 4.18028 12.9528 4.1443C12.9367 4.12666 12.7221 4.20135 12.0334 4.46431C11.5392 4.65297 11.126 4.80742 11.1152 4.80751C11.1043 4.80761 11.0183 4.7505 10.924 4.68059C10.4851 4.35511 10.1606 4.17218 9.67257 3.97512C9.49909 3.90506 9.3558 3.84653 9.35414 3.84505C9.35248 3.84356 9.288 3.42729 9.21086 2.92L9.0706 1.99766H8.00566H6.94073L6.92944 2.05979C6.92324 2.09396 6.85929 2.50734 6.78733 2.97841C6.71537 3.44949 6.6524 3.83901 6.64739 3.84402C6.64238 3.84904 6.51598 3.90002 6.36651 3.95732C5.91668 4.12977 5.59848 4.30912 4.99835 4.72851L4.88326 4.80893L3.97582 4.46474C3.2736 4.19838 3.06362 4.12583 3.04736 4.14393C3.03107 4.16205 2.02253 5.80774 1.99439 5.86211C1.98964 5.87128 3.38066 6.91467 3.52338 7.009C3.53563 7.01709 3.52644 7.14574 3.49743 7.3722C3.43793 7.83669 3.43791 8.18794 3.49737 8.62744C3.54137 8.95265 3.54152 8.95914 3.50581 8.99233C3.48066 9.01572 2.12908 10.017 1.99085 10.1146C1.98578 10.1182 3.02537 11.8494 3.04894 11.8767C3.05294 11.8813 3.7712 11.6102 4.69002 11.2574C4.78307 11.2216 4.8679 11.1924 4.87854 11.1924C4.88918 11.1924 4.99009 11.2605 5.10279 11.3437C5.54187 11.6678 5.85329 11.8399 6.3703 12.0438C6.52537 12.105 6.65226 12.1616 6.65226 12.1695C6.65226 12.1906 6.91796 13.8877 6.93101 13.9499L6.94203 14.0024H8.00631H9.0706L9.21086 13.0801Z" fill="#386AFF"/>
<path d="M7.57935 10.4541C6.69378 10.2943 5.9544 9.67015 5.65135 8.82646C5.46989 8.32127 5.46972 7.68241 5.65092 7.17356C5.82888 6.67379 6.18107 6.22594 6.63244 5.92545C7.45846 5.37555 8.54011 5.37472 9.36423 5.92336C9.92613 6.29744 10.2996 6.84768 10.4399 7.50809C10.4985 7.78381 10.4985 8.21621 10.4399 8.49193C10.2232 9.51231 9.42952 10.2777 8.40361 10.4556C8.19278 10.4922 7.78652 10.4915 7.57935 10.4541Z" fill="#386AFF"/>
</g>
<defs>
<clipPath id="clip0_2914_152153">
<rect width="16" height="16" fill="white"/>
</clipPath>
</defs>
</svg>
