<svg width="30" height="30" viewBox="0 0 30 30" fill="none" xmlns="http://www.w3.org/2000/svg">
<path fill-rule="evenodd" clip-rule="evenodd" d="M26.0844 27.037L2.98407 3.93663L3.02101 3.89969L0.878723 6.00004L4.93956 10.0609C3.6314 11.384 2.48489 13.0303 1.50004 15C4.00004 21 8.50004 24 15 24C16.2556 24 17.4366 23.8881 18.5429 23.6642L24 29.1214L26.0844 27.037ZM4.85389 15.1043C5.52397 13.9652 6.25711 12.9924 7.05889 12.1802L10.5497 15.6711C10.841 17.6192 12.3809 19.1591 14.329 19.4504L15.8579 20.9793C15.5776 20.9931 15.2917 21 15 21C10.1884 21 6.9338 19.1198 4.85389 15.1043Z" fill="white"/>
<path d="M24.2757 20.9857C26.0388 19.5229 27.4469 17.5276 28.5 15C25.5 9.00004 21 6.00004 15 6.00004C13.2276 6.00004 11.5861 6.26183 10.0755 6.7854L12.5192 9.22908C13.3041 9.07567 14.1303 9.00004 15 9.00004C19.4061 9.00004 22.6973 10.9411 25.1462 15.1043C24.3324 16.6754 23.3388 17.9197 22.1424 18.8523L24.2757 20.9857Z" fill="white"/>
<path d="M19.3697 16.0796L13.9205 10.6304C14.2663 10.5452 14.6279 10.5 15 10.5C17.4853 10.5 19.5 12.5148 19.5 15C19.5 15.3722 19.4549 15.7338 19.3697 16.0796Z" fill="white"/>
</svg>
