<svg width="30" height="30" viewBox="0 0 30 30" fill="none" xmlns="http://www.w3.org/2000/svg">
<path fill-rule="evenodd" clip-rule="evenodd" d="M19.5 15C19.5 17.4853 17.4853 19.5 15 19.5C12.5147 19.5 10.5 17.4853 10.5 15C10.5 12.5147 12.5147 10.5 15 10.5C17.4853 10.5 19.5 12.5147 19.5 15ZM16.5 15C16.5 15.8284 15.8284 16.5 15 16.5C14.1716 16.5 13.5 15.8284 13.5 15C13.5 14.1716 14.1716 13.5 15 13.5C15.8284 13.5 16.5 14.1716 16.5 15ZM15 24C21.5 24 26 21 28.5 15C25.5 9 21 6 15 6C9 6 4.5 9 1.5 15C4 21 8.5 24 15 24ZM15 9C19.406 9 22.6973 10.941 25.1462 15.1043C23.0662 19.1197 19.8116 21 15 21C10.1884 21 6.93375 19.1197 4.85385 15.1043C7.30274 10.941 10.594 9 15 9Z" fill="white"/>
</svg>
